<?xml version="1.0" encoding="UTF-8"?>
<svg version="1.1" xmlns="http://www.w3.org/2000/svg" width="400" height="326">
<path d="M0 0 C7.79499275 0.11989916 12.84986745 1.70773273 18.88598633 6.6940918 C21.10499806 9.43522394 22.5239102 12.1325001 24.01098633 15.3190918 C25.00098633 16.3090918 25.00098633 16.3090918 26.01098633 17.3190918 C27.16719396 22.32932486 26.9784155 25.57411555 25.01098633 30.3190918 C27.90332948 31.14547556 29.89841064 31.3190918 33.01098633 31.3190918 C32.40020284 38.77065035 32.40020284 38.77065035 30.63598633 41.2565918 C29.01098633 42.3190918 29.01098633 42.3190918 26.01098633 43.3190918 C24.30512058 44.94561496 22.63323172 46.60915746 21.01098633 48.3190918 C19.36098633 47.6590918 17.71098633 46.9990918 16.01098633 46.3190918 C16.34098633 47.9690918 16.67098633 49.6190918 17.01098633 51.3190918 C17.79860352 50.9581543 18.5862207 50.5972168 19.39770508 50.2253418 C27.25131711 46.87942425 34.45706846 44.59460368 43.01098633 46.3190918 C46.4214477 48.05148545 48.54871989 50.42652637 51.01098633 53.3190918 C51.85016602 54.25366211 52.6893457 55.18823242 53.55395508 56.15112305 C60.1152537 63.58163852 65.97224401 71.51595127 71.74291992 79.56616211 C72.93469179 81.21362495 74.15362063 82.8413451 75.37426758 84.4675293 C81.69032457 92.89663644 84.32170361 98.80021587 84.50708008 109.4284668 C84.01098633 112.3190918 84.01098633 112.3190918 82.23364258 114.1472168 C75.6004034 117.64453095 66.27785882 117.59958793 59.04077148 115.84008789 C56.00426164 114.88465103 53.07261366 113.72619568 50.13208008 112.51049805 C47.05809343 111.33707386 44.25200681 110.81078809 41.01098633 110.3190918 C33.12260461 152.38078884 33.12260461 152.38078884 26.76098633 194.6940918 C26.59767822 195.92313232 26.43437012 197.15217285 26.26611328 198.41845703 C24.63248029 211.29343454 23.97527112 224.05861146 23.83520508 237.0222168 C23.82315033 238.0428421 23.81109558 239.06346741 23.79867554 240.11502075 C23.75021643 244.34859215 23.70256954 248.58184424 23.68505859 252.81567383 C23.6696531 255.94749266 23.62957922 259.07819242 23.58520508 262.2097168 C23.58711349 263.16694641 23.58902191 264.12417603 23.59098816 265.1104126 C23.46823627 271.72799522 23.46823627 271.72799522 20.97509766 274.95092773 C20.32694092 275.40242188 19.67878418 275.85391602 19.01098633 276.3190918 C16.20196809 275.69486552 14.47308105 274.99551335 12.82348633 272.58081055 C6.38809671 260.01760508 7.82415484 243.92597127 7.82568359 230.09228516 C7.8234905 227.8857916 7.80520587 225.67979522 7.78637695 223.47338867 C7.75527744 215.24796596 8.18316003 207.23887023 9.30903625 199.08534241 C9.89597007 194.79480763 10.09982113 190.64812075 10.01098633 186.3190918 C9.25172852 186.6078418 8.4924707 186.8965918 7.71020508 187.1940918 C6.71633789 187.5653418 5.7224707 187.9365918 4.69848633 188.3190918 C3.71235352 188.6903418 2.7262207 189.0615918 1.71020508 189.4440918 C-0.98901367 190.3190918 -0.98901367 190.3190918 -3.98901367 190.3190918 C-4.10176636 191.29011841 -4.10176636 191.29011841 -4.21679688 192.28076172 C-5.57327565 203.90874793 -6.9584198 215.53333086 -8.55151367 227.1315918 C-8.66599854 228.00130615 -8.7804834 228.87102051 -8.8984375 229.76708984 C-9.0121167 230.5744458 -9.1257959 231.38180176 -9.24291992 232.21362305 C-9.33903564 232.91334229 -9.43515137 233.61306152 -9.53417969 234.33398438 C-10.0419891 236.55030127 -10.90133619 238.33007646 -11.98901367 240.3190918 C-13.80151367 240.2565918 -13.80151367 240.2565918 -15.98901367 239.3190918 C-23.11981176 228.22673922 -20.3630726 208.93131484 -18.98901367 196.3190918 C-18.65901367 195.3290918 -18.32901367 194.3390918 -17.98901367 193.3190918 C-18.52913086 193.47249023 -19.06924805 193.62588867 -19.62573242 193.78393555 C-29.67259716 196.0590107 -43.95921846 197.06030601 -53.98901367 194.3190918 C-54.90841211 203.44679399 -55.22500582 212.52325803 -55.23901367 221.6940918 C-55.2413501 222.40009521 -55.24368652 223.10609863 -55.24609375 223.83349609 C-55.26235988 237.03124097 -54.18348432 249.93373646 -52.64526367 263.0378418 C-52.05347577 268.17899919 -51.85641266 273.14765251 -51.98901367 278.3190918 C-56.38572339 280.51744666 -56.38572339 280.51744666 -59.03027344 279.64794922 C-64.6857483 275.81113635 -65.70966219 265.90415524 -66.96606445 259.62060547 C-67.1592627 258.59298096 -67.35246094 257.56535645 -67.55151367 256.5065918 C-67.76275879 255.4112915 -67.97400391 254.31599121 -68.19165039 253.1875 C-71.87979485 233.6912053 -73.98005286 214.04911105 -75.98901367 194.3190918 C-79.94901367 193.3290918 -79.94901367 193.3290918 -83.98901367 192.3190918 C-82.07281408 207.50566429 -80.04188223 222.54201629 -76.56445312 237.46362305 C-75.40286994 242.58935378 -74.88503577 247.16611229 -75.03051758 252.41625977 C-74.97613569 254.90950917 -74.27144425 256.59892099 -73.05151367 258.7565918 C-70.71783389 263.51563163 -69.74703195 268.00480092 -69.98901367 273.3190918 C-71.54775821 277.17493356 -73.56953389 279.05432084 -76.98901367 281.3190918 C-79.28808594 282.05517578 -79.28808594 282.05517578 -81.80541992 282.56518555 C-82.7295166 282.76088135 -83.65361328 282.95657715 -84.60571289 283.15820312 C-85.57782715 283.35567139 -86.54994141 283.55313965 -87.55151367 283.7565918 C-93.64709078 285.05218638 -99.55764423 286.31561417 -105.36401367 288.6315918 C-112.6230684 291.49121942 -118.6214956 290.42409696 -125.98901367 288.3190918 C-126.42651367 285.6940918 -126.42651367 285.6940918 -125.98901367 282.3190918 C-122.85511143 278.24501888 -118.32574834 275.87790905 -113.86401367 273.5065918 C-102.05155634 268.05069286 -102.05155634 268.05069286 -94.16870117 258.7409668 C-94.17589692 256.45271775 -94.38026564 254.51995007 -94.98901367 252.3190918 C-95.56780273 252.14506836 -96.1465918 251.97104492 -96.74291992 251.79174805 C-100.14031592 249.56423798 -101.3293258 246.359958 -102.92651367 242.7565918 C-103.30130859 241.91668701 -103.67610352 241.07678223 -104.06225586 240.21142578 C-113.75784096 217.40661784 -121.08576171 192.59470122 -125.98901367 168.3190918 C-126.72583374 168.96938354 -126.72583374 168.96938354 -127.47753906 169.6328125 C-130.8614575 172.6082226 -134.25639885 175.56023454 -137.73510742 178.42456055 C-146.5530393 185.74546194 -153.8878663 193.07240421 -159.59838867 203.1628418 C-160.05729492 203.8744043 -160.51620117 204.5859668 -160.98901367 205.3190918 C-161.64901367 205.3190918 -162.30901367 205.3190918 -162.98901367 205.3190918 C-163.09858398 206.12733398 -163.2081543 206.93557617 -163.32104492 207.76831055 C-163.55887695 209.37125977 -163.55887695 209.37125977 -163.80151367 211.0065918 C-163.95233398 212.06233398 -164.1031543 213.11807617 -164.25854492 214.20581055 C-165.05356564 217.59421435 -165.79152051 219.61483921 -167.98901367 222.3190918 C-173.30051152 225.2795988 -178.45044103 225.98881224 -184.42651367 226.6940918 C-191.90729531 227.66581077 -198.81364747 229.19609366 -205.87548828 231.86938477 C-208.88417372 232.95008497 -210.62782225 233.41537555 -213.75854492 232.58081055 C-217.08630576 230.69838191 -220.24752918 228.80206078 -221.98901367 225.3190918 C-222.37108204 221.88047646 -222.26380977 219.85559847 -220.67651367 216.7565918 C-216.62961753 213.08615111 -212.00061268 211.39649935 -206.98901367 209.3190918 C-202.23875325 207.29632267 -197.50704758 205.23344331 -192.79516602 203.12280273 C-191.22734714 202.42514664 -189.6499663 201.74905557 -188.07104492 201.0769043 C-183.77360823 199.10034815 -183.77360823 199.10034815 -181.12426758 195.37084961 C-180.92752441 194.63705078 -180.73078125 193.90325195 -180.52807617 193.1472168 C-179.11963433 188.50220643 -177.1712159 184.59317018 -174.67651367 180.4440918 C-174.24846436 179.72648682 -173.82041504 179.00888184 -173.37939453 178.26953125 C-164.97472596 164.48931798 -155.12554794 151.96849277 -143.98901367 140.3190918 C-142.83397042 139.0146895 -141.68718145 137.70289758 -140.55151367 136.3815918 C-139.36488218 135.02666401 -138.1772427 133.67261881 -136.98901367 132.3190918 C-136.54944336 131.81168457 -136.10987305 131.30427734 -135.65698242 130.78149414 C-127.37484205 121.2674127 -121.68128657 115.22187651 -108.58325195 114.24731445 C-101.46562639 114.38945424 -94.74795631 116.48720833 -87.92651367 118.3815918 C-86.3704471 118.79875858 -84.8140478 119.21468618 -83.25732422 119.62939453 C-72.40435369 122.54535039 -61.62888769 125.69670478 -50.98901367 129.3190918 C-50.84463867 128.5353418 -50.70026367 127.7515918 -50.55151367 126.9440918 C-49.98901367 124.3190918 -49.98901367 124.3190918 -48.98901367 122.3190918 C-49.67608398 122.37709961 -50.3631543 122.43510742 -51.07104492 122.49487305 C-58.34124039 122.85890286 -58.34124039 122.85890286 -61.23901367 120.4440918 C-62.91293373 113.46942491 -60.50619368 107.71272563 -56.86401367 101.7565918 C-51.93255142 94.51286717 -46.37447211 88.08038868 -39.43432617 82.70581055 C-37.74029325 81.08045464 -36.92736629 79.45543829 -35.98901367 77.3190918 C-35.32901367 77.3190918 -34.66901367 77.3190918 -33.98901367 77.3190918 C-33.98901367 76.6590918 -33.98901367 75.9990918 -33.98901367 75.3190918 C-33.32901367 75.3190918 -32.66901367 75.3190918 -31.98901367 75.3190918 C-31.78276367 74.4940918 -31.57651367 73.6690918 -31.36401367 72.8190918 C-28.86834937 66.46649175 -24.12471812 59.60652445 -17.98901367 56.3190918 C-14.9100271 55.37863109 -11.84949535 54.64142955 -8.69604492 53.99487305 C-5.79289939 53.4314895 -5.79289939 53.4314895 -2.98901367 51.3190918 C-2.98901367 50.6590918 -2.98901367 49.9990918 -2.98901367 49.3190918 C-3.97901367 49.8140918 -3.97901367 49.8140918 -4.98901367 50.3190918 C-9.49787547 50.57431039 -12.95797824 50.45316938 -16.98901367 48.3190918 C-18.79865993 44.69979928 -18.34284121 40.38025891 -18.51245117 36.38549805 C-19.02723678 33.07314805 -19.54664685 32.4144199 -21.98901367 30.3190918 C-21.92651367 27.7565918 -21.92651367 27.7565918 -20.98901367 25.3190918 C-19.65568034 24.65242513 -18.32234701 23.98575846 -16.98901367 23.3190918 C-16.17730139 20.76389258 -16.17730139 20.76389258 -15.98901367 18.3190918 C-16.64901367 18.3190918 -17.30901367 18.3190918 -17.98901367 18.3190918 C-17.98901367 13.6990918 -17.98901367 9.0790918 -17.98901367 4.3190918 C-16.00901367 3.3290918 -14.02901367 2.3390918 -11.98901367 1.3190918 C-9.63594064 -1.03398124 -3.29694102 0.00873148 0 0 Z M-10.98901367 14.3190918 C-11.31901367 15.6390918 -11.64901367 16.9590918 -11.98901367 18.3190918 C-11.08151367 18.3809668 -10.17401367 18.4428418 -9.23901367 18.5065918 C-5.25117192 19.50355224 -4.22309256 20.96797346 -1.98901367 24.3190918 C-4.62901367 23.6590918 -7.26901367 22.9990918 -9.98901367 22.3190918 C-9.98901367 23.9690918 -9.98901367 25.6190918 -9.98901367 27.3190918 C-10.97901367 27.8140918 -10.97901367 27.8140918 -11.98901367 28.3190918 C-11.98901367 26.3390918 -11.98901367 24.3590918 -11.98901367 22.3190918 C-12.39120117 23.1853418 -12.39120117 23.1853418 -12.80151367 24.0690918 C-14.00621226 26.3516786 -15.39699483 28.29288599 -16.98901367 30.3190918 C-15.99901367 32.6290918 -15.00901367 34.9390918 -13.98901367 37.3190918 C-12.33901367 37.3190918 -10.68901367 37.3190918 -8.98901367 37.3190918 C-8.98901367 37.9790918 -8.98901367 38.6390918 -8.98901367 39.3190918 C-10.63901367 39.9790918 -12.28901367 40.6390918 -13.98901367 41.3190918 C-13.65901367 42.3090918 -13.32901367 43.2990918 -12.98901367 44.3190918 C-11.57245574 44.3463333 -10.15574322 44.36559646 -8.73901367 44.3815918 C-7.95010742 44.39319336 -7.16120117 44.40479492 -6.34838867 44.41674805 C-3.68423225 44.38612681 -3.68423225 44.38612681 0.01098633 43.3190918 C0.67098633 47.2790918 1.33098633 51.2390918 2.01098633 55.3190918 C1.35098633 55.3190918 0.69098633 55.3190918 0.01098633 55.3190918 C-1.73696397 60.56294268 -2.18293568 64.79231446 -1.98901367 70.3190918 C0.9170947 71.64862006 0.9170947 71.64862006 3.32348633 70.3815918 C6.99166541 67.56647762 9.48915783 64.17209076 12.01098633 60.3190918 C12.41961914 59.69905273 12.82825195 59.07901367 13.24926758 58.44018555 C14.32961507 55.4318333 13.69811355 53.42430609 13.01098633 50.3190918 C12.67260742 48.45704102 12.67260742 48.45704102 12.32739258 46.55737305 C12.07860352 45.26186523 11.82981445 43.96635742 11.57348633 42.6315918 C11.45166992 41.96836914 11.32985352 41.30514648 11.2043457 40.62182617 C10.55402246 37.27586256 9.93065259 35.19859119 8.01098633 32.3190918 C7.02098633 31.9890918 6.03098633 31.6590918 5.01098633 31.3190918 C4.68098633 30.6590918 4.35098633 29.9990918 4.01098633 29.3190918 C4.79473633 29.0509668 5.57848633 28.7828418 6.38598633 28.5065918 C9.29213555 27.47094748 9.29213555 27.47094748 11.01098633 24.3190918 C7.3283253 24.91859476 3.66555448 25.56668071 0.01098633 26.3190918 C-0.13338867 25.2672168 -0.27776367 24.2153418 -0.42651367 23.1315918 C-1.1721117 20.3734397 -1.79068072 19.46557537 -4.12573242 17.7409668 C-6.38181615 16.50844382 -8.64195863 15.3670567 -10.98901367 14.3190918 Z M51.32348633 76.1315918 C50.35024414 76.46803711 49.37700195 76.80448242 48.37426758 77.15112305 C47.59438477 77.53655273 46.81450195 77.92198242 46.01098633 78.3190918 C44.67996484 81.24020659 44.67996484 81.24020659 45.96801758 83.73706055 C48.71002122 87.20257566 51.78324513 88.70504454 55.69848633 90.6315918 C56.75132812 91.17009766 56.75132812 91.17009766 57.82543945 91.71948242 C59.54778038 92.59822779 61.27858535 93.46034937 63.01098633 94.3190918 C63.01098633 94.9790918 63.01098633 95.6390918 63.01098633 96.3190918 C58.42770611 96.3771193 53.84452028 96.41269773 49.26098633 96.4440918 C47.9590332 96.46084961 46.65708008 96.47760742 45.31567383 96.49487305 C44.0652832 96.50131836 42.81489258 96.50776367 41.52661133 96.5144043 C40.37451172 96.52487793 39.22241211 96.53535156 38.03540039 96.54614258 C34.212776 96.25916803 32.04922692 95.46885695 29.48364258 92.62768555 C29.01829102 92.01022461 28.55293945 91.39276367 28.07348633 90.7565918 C26.01098416 88.22700898 25.3242809 87.42125307 22.13598633 86.3815918 C21.08411133 86.3506543 21.08411133 86.3506543 20.01098633 86.3190918 C20.34098633 87.3090918 20.67098633 88.2990918 21.01098633 89.3190918 C19.03098633 89.9790918 17.05098633 90.6390918 15.01098633 91.3190918 C15.01098633 91.6490918 15.01098633 91.9790918 15.01098633 92.3190918 C16.66098633 92.3190918 18.31098633 92.3190918 20.01098633 92.3190918 C19.43753696 95.18633866 19.14953482 96.1805433 17.01098633 98.3190918 C22.67335454 100.64470731 27.66403948 101.54122629 33.76098633 101.7565918 C41.99183635 102.08154452 49.45810741 103.8594994 57.03051758 107.21362305 C63.97351574 110.28427365 71.53174729 110.05586615 79.01098633 110.3190918 C80.60996171 104.48753454 78.87853899 100.56886776 76.16333008 95.31616211 C73.69988816 91.04689201 70.83532764 87.059168 67.94848633 83.0690918 C67.33481201 82.21041504 66.7211377 81.35173828 66.08886719 80.46704102 C65.19760132 79.27232178 65.19760132 79.27232178 64.28833008 78.0534668 C63.75457764 77.33384766 63.2208252 76.61422852 62.67089844 75.87280273 C59.2812091 72.69998571 55.18920144 74.75355984 51.32348633 76.1315918 Z M13.82348633 79.2565918 C12.75743164 79.80186523 11.69137695 80.34713867 10.59301758 80.90893555 C8.15084345 82.08534868 8.15084345 82.08534868 7.01098633 83.3190918 C6.71454897 84.87496923 6.47317739 86.44144367 6.25708008 88.01049805 C6.12495117 88.95473633 5.99282227 89.89897461 5.85668945 90.87182617 C5.72198242 91.86504883 5.58727539 92.85827148 5.44848633 93.8815918 C5.30991211 94.87868164 5.17133789 95.87577148 5.02856445 96.90307617 C4.68562727 99.37458895 4.34661179 101.84657724 4.01098633 104.3190918 C3.02098633 104.3190918 2.03098633 104.3190918 1.01098633 104.3190918 C1.34098633 97.0590918 1.67098633 89.7990918 2.01098633 82.3190918 C-5.02543068 80.75544357 -9.19755341 80.10348988 -15.98901367 80.3190918 C-17.14676427 83.7923436 -17.05768019 86.67976627 -16.98901367 90.3190918 C-13.68901367 90.3190918 -10.38901367 90.3190918 -6.98901367 90.3190918 C-6.32901367 91.6390918 -5.66901367 92.9590918 -4.98901367 94.3190918 C-6.96901367 95.3090918 -8.94901367 96.2990918 -10.98901367 97.3190918 C-10.32901367 97.7315918 -9.66901367 98.1440918 -8.98901367 98.5690918 C-7.99901367 99.4353418 -7.99901367 99.4353418 -6.98901367 100.3190918 C-6.98901367 101.6390918 -6.98901367 102.9590918 -6.98901367 104.3190918 C-7.64901367 104.9790918 -8.30901367 105.6390918 -8.98901367 106.3190918 C-7.57233205 109.92934496 -6.13761867 111.13715005 -2.61401367 112.6940918 C-1.8431543 113.05245117 -1.07229492 113.41081055 -0.27807617 113.7800293 C2.00611764 114.53432195 2.00611764 114.53432195 4.13598633 113.5769043 C6.77399445 111.80724052 8.82854374 109.61639979 11.01098633 107.3190918 C11.67098633 106.6590918 12.33098633 105.9990918 13.01098633 105.3190918 C11.636131 103.77742538 11.636131 103.77742538 10.01098633 102.3190918 C9.35098633 102.3190918 8.69098633 102.3190918 8.01098633 102.3190918 C8.1252803 100.54753525 8.2528167 98.77682951 8.38598633 97.0065918 C8.4555957 96.02045898 8.52520508 95.03432617 8.59692383 94.01831055 C9.01098633 91.3190918 9.01098633 91.3190918 11.01098633 88.3190918 C10.35098633 88.3190918 9.69098633 88.3190918 9.01098633 88.3190918 C10.76098633 83.4440918 10.76098633 83.4440918 13.01098633 82.3190918 C14.88478238 82.24875411 16.76099734 82.2347896 18.63598633 82.2565918 C20.14032227 82.27012695 20.14032227 82.27012695 21.67504883 82.28393555 C22.4459082 82.29553711 23.21676758 82.30713867 24.01098633 82.3190918 C24.01098633 80.3390918 24.01098633 78.3590918 24.01098633 76.3190918 C19.58231925 76.3190918 17.70414874 77.2477227 13.82348633 79.2565918 Z M38.01098633 82.3190918 C37.02098633 85.2890918 36.03098633 88.2590918 35.01098633 91.3190918 C36.66098633 91.3190918 38.31098633 91.3190918 40.01098633 91.3190918 C40.01098633 88.3490918 40.01098633 85.3790918 40.01098633 82.3190918 C39.35098633 82.3190918 38.69098633 82.3190918 38.01098633 82.3190918 Z M-32.98901367 83.3190918 C-34.42188547 84.9362749 -35.78526116 86.61532551 -37.11401367 88.3190918 C-39.97849923 91.91464188 -42.84711854 95.27507215 -46.17651367 98.4440918 C-51.86386887 103.99495047 -55.99008253 109.30467871 -56.98901367 117.3190918 C-42.66058323 115.28365474 -42.66058323 115.28365474 -29.98901367 109.3190918 C-29.22394737 106.75691379 -29.22394737 106.75691379 -28.98901367 104.3190918 C-29.77405273 104.5356543 -30.5590918 104.7522168 -31.36791992 104.9753418 C-37.05047386 106.4813929 -42.10556892 107.72023576 -47.98901367 107.3190918 C-47.98901367 106.3290918 -47.98901367 105.3390918 -47.98901367 104.3190918 C-47.32514648 104.23272461 -46.6612793 104.14635742 -45.97729492 104.05737305 C-41.55007384 103.35289553 -38.59089663 102.76129152 -34.92651367 100.0690918 C-32.70889611 96.92150557 -32.28808866 95.13229784 -31.98901367 91.3190918 C-31.80696548 89.86006787 -31.61932331 88.40173263 -31.42651367 86.9440918 C-31.28213867 85.7478418 -31.13776367 84.5515918 -30.98901367 83.3190918 C-31.64901367 83.3190918 -32.30901367 83.3190918 -32.98901367 83.3190918 Z M45.01098633 88.3190918 C45.01098633 89.3090918 45.01098633 90.2990918 45.01098633 91.3190918 C46.00098633 90.9890918 46.99098633 90.6590918 48.01098633 90.3190918 C47.02098633 89.6590918 46.03098633 88.9990918 45.01098633 88.3190918 Z M-23.98901367 98.3190918 C-25.54840345 101.43787136 -25.34979707 103.89164951 -24.98901367 107.3190918 C-21.77004281 110.09098338 -20.29545637 110.3190918 -15.98901367 110.3190918 C-16.25577571 108.33417538 -16.25577571 108.33417538 -16.98901367 106.3190918 C-17.97901367 105.9890918 -18.96901367 105.6590918 -19.98901367 105.3190918 C-19.98901367 104.3290918 -19.98901367 103.3390918 -19.98901367 102.3190918 C-17.34901367 102.3190918 -14.70901367 102.3190918 -11.98901367 102.3190918 C-12.31901367 101.6590918 -12.64901367 100.9990918 -12.98901367 100.3190918 C-15.29901367 100.3190918 -17.60901367 100.3190918 -19.98901367 100.3190918 C-19.98901367 98.9990918 -19.98901367 97.6790918 -19.98901367 96.3190918 C-18.66901367 95.6590918 -17.34901367 94.9990918 -15.98901367 94.3190918 C-19.92532731 94.3190918 -21.11506394 95.74766309 -23.98901367 98.3190918 Z M32.01098633 107.3190918 C30.26732006 114.75350169 28.55086525 122.19385063 26.85327148 129.63891602 C26.32397404 131.95156228 25.79042451 134.2632437 25.25073242 136.57348633 C21.5221353 152.57569491 18.71940298 168.65238509 16.19848633 184.8815918 C16.04542023 185.86366608 15.89235413 186.84574036 15.73464966 187.85757446 C13.59824566 201.64155671 11.81907066 215.09375358 11.88598633 229.0690918 C11.89082031 230.13732178 11.8956543 231.20555176 11.90063477 232.30615234 C11.92516919 235.64406021 11.96523134 238.98141114 12.01098633 242.3190918 C12.02355469 243.41753418 12.03612305 244.51597656 12.04907227 245.64770508 C12.09536291 248.81011197 12.17235156 251.9701164 12.26098633 255.1315918 C12.28201416 256.58033691 12.28201416 256.58033691 12.3034668 258.05834961 C12.33585449 258.95521484 12.36824219 259.85208008 12.40161133 260.77612305 C12.42255859 261.55963135 12.44350586 262.34313965 12.46508789 263.15039062 C13.20221127 266.07877477 14.77673154 267.36481394 17.01098633 269.3190918 C17.03080566 268.339646 17.050625 267.3602002 17.07104492 266.35107422 C18.18540463 212.98042696 23.72634154 160.34817561 36.01098633 108.3190918 C34.69098633 107.9890918 33.37098633 107.6590918 32.01098633 107.3190918 Z M23.01098633 117.3190918 C24.01098633 119.3190918 24.01098633 119.3190918 24.01098633 119.3190918 Z M22.01098633 119.3190918 C21.26655273 120.86016602 21.26655273 120.86016602 20.50708008 122.43237305 C11.47132391 140.94044942 11.47132391 140.94044942 4.88598633 148.8815918 C3.18321357 151.09519639 2.38794389 152.46702217 1.76098633 155.1315918 C1.51348633 156.1834668 1.26598633 157.2353418 1.01098633 158.3190918 C1.60266602 158.50084961 2.1943457 158.68260742 2.80395508 158.86987305 C3.98924805 159.24692383 3.98924805 159.24692383 5.19848633 159.6315918 C5.97579102 159.87522461 6.7530957 160.11885742 7.55395508 160.36987305 C10.25428134 161.41308335 12.54821886 162.80699203 15.01098633 164.3190918 C16.15650382 158.715272 17.29564846 153.11020834 18.42895508 147.50390625 C18.81523367 145.5976279 19.20323904 143.6916986 19.59301758 141.78613281 C20.15357564 139.04411731 20.70787371 136.30089884 21.26098633 133.55737305 C21.43597656 132.7082283 21.6109668 131.85908356 21.79125977 130.98420715 C22.58070258 127.03885448 23.24127012 123.36704911 23.01098633 119.3190918 C22.68098633 119.3190918 22.35098633 119.3190918 22.01098633 119.3190918 Z M-94.98901367 163.3190918 C-94.5069043 164.48827148 -94.02479492 165.65745117 -93.52807617 166.86206055 C-92.89004185 168.41023207 -92.25202176 169.95840946 -91.61401367 171.5065918 C-91.2969043 172.27551758 -90.97979492 173.04444336 -90.65307617 173.83666992 C-90.34370117 174.58754883 -90.03432617 175.33842773 -89.71557617 176.11206055 C-89.4078125 176.84086426 -89.10004883 177.56966797 -88.78295898 178.32055664 C-87.98901367 180.3190918 -87.98901367 180.3190918 -87.19995117 183.24487305 C-86.07734173 185.64201577 -86.07734173 185.64201577 -82.92260742 186.6237793 C-78.54524483 187.39753356 -74.48050827 187.54276691 -70.05151367 187.4440918 C-69.27227539 187.43506836 -68.49303711 187.42604492 -67.69018555 187.41674805 C-65.78965921 187.39342871 -63.88929359 187.35756766 -61.98901367 187.3190918 C-61.49401367 185.8340918 -61.49401367 185.8340918 -60.98901367 184.3190918 C-60.32901367 184.3190918 -59.66901367 184.3190918 -58.98901367 184.3190918 C-58.98901367 185.6390918 -58.98901367 186.9590918 -58.98901367 188.3190918 C-23.79208645 190.50569941 -23.79208645 190.50569941 9.01098633 180.3190918 C9.50598633 178.8340918 9.50598633 178.8340918 10.01098633 177.3190918 C11.00098633 176.9890918 11.99098633 176.6590918 13.01098633 176.3190918 C12.74063999 173.88191922 12.74063999 173.88191922 12.01098633 171.3190918 C11.02098633 170.6590918 10.03098633 169.9990918 9.01098633 169.3190918 C8.59848633 169.8347168 8.18598633 170.3503418 7.76098633 170.8815918 C7.18348633 171.3559668 6.60598633 171.8303418 6.01098633 172.3190918 C3.82348633 172.0065918 3.82348633 172.0065918 2.01098633 171.3190918 C2.01098633 170.6590918 2.01098633 169.9990918 2.01098633 169.3190918 C3.66098633 168.6590918 5.31098633 167.9990918 7.01098633 167.3190918 C3.91770737 164.3423372 3.91770737 164.3423372 0.01098633 163.3190918 C0.01098633 164.3090918 0.01098633 165.2990918 0.01098633 166.3190918 C-1.00995117 166.4119043 -1.00995117 166.4119043 -2.05151367 166.5065918 C-5.475445 167.45363663 -7.56731413 169.00446591 -10.34057617 171.1628418 C-14.72578107 174.23872011 -19.9371667 173.50999201 -25.05151367 173.5065918 C-26.55113647 173.50755859 -26.55113647 173.50755859 -28.08105469 173.50854492 C-40.0921006 173.42703246 -52.03338887 172.40478554 -63.98901367 171.3190918 C-63.98901367 172.9690918 -63.98901367 174.6190918 -63.98901367 176.3190918 C-64.64901367 176.3190918 -65.30901367 176.3190918 -65.98901367 176.3190918 C-65.98901367 174.6690918 -65.98901367 173.0190918 -65.98901367 171.3190918 C-70.80829553 169.92795889 -75.63936969 168.60164227 -80.48901367 167.3190918 C-85.33865765 166.03654132 -90.16973181 164.7102247 -94.98901367 163.3190918 Z M-13.98901367 192.3190918 C-13.98901367 198.9190918 -13.98901367 205.5190918 -13.98901367 212.3190918 C-11.94553436 208.23213317 -11.13262689 204.50822531 -10.36401367 200.0690918 C-10.22995117 199.32401367 -10.09588867 198.57893555 -9.95776367 197.8112793 C-9.62934692 195.9815288 -9.30843387 194.15043425 -8.98901367 192.3190918 C-10.63901367 192.3190918 -12.28901367 192.3190918 -13.98901367 192.3190918 Z M-69.98901367 194.3190918 C-69.32998364 200.48441017 -68.56275186 206.62008189 -67.67651367 212.7565918 C-67.54970215 213.64040527 -67.42289063 214.52421875 -67.29223633 215.43481445 C-65.8805027 225.19551037 -64.36921185 234.94086539 -62.85620117 244.6862793 C-62.20433942 248.89349788 -61.57764311 253.10258299 -60.98901367 257.3190918 C-60.65901367 257.3190918 -60.32901367 257.3190918 -59.98901367 257.3190918 C-59.98901367 236.5290918 -59.98901367 215.7390918 -59.98901367 194.3190918 C-63.28901367 194.3190918 -66.58901367 194.3190918 -69.98901367 194.3190918 Z M-177.98901367 198.3190918 C-179.10958192 199.84310396 -179.10958192 199.84310396 -180.17651367 201.8190918 C-187.93601308 212.62900866 -205.9965649 216.8774441 -217.98901367 221.3190918 C-217.30880046 224.46686616 -217.30880046 224.46686616 -214.73754883 225.61572266 C-211.36984734 226.47754074 -210.15135851 225.97370617 -207.01245117 224.57299805 C-200.6406197 222.02618919 -194.39125613 221.12218462 -187.61401367 220.2565918 C-185.33400881 219.96359454 -183.05526418 219.66057615 -180.77807617 219.34643555 C-179.78501465 219.22002686 -178.79195312 219.09361816 -177.76879883 218.96337891 C-174.67256065 218.24574562 -172.57333867 217.15333152 -169.98901367 215.3190918 C-168.76497918 213.23036368 -168.76497918 213.23036368 -168.17651367 210.8815918 C-167.94319336 210.11975586 -167.70987305 209.35791992 -167.46948242 208.57299805 C-166.85002224 206.05116647 -166.85002224 206.05116647 -166.98901367 202.3190918 C-168.25592875 201.64500872 -169.52772116 200.98008683 -170.80151367 200.3190918 C-171.50920898 199.9478418 -172.2169043 199.5765918 -172.94604492 199.1940918 C-175.07822096 198.12223822 -175.07822096 198.12223822 -177.98901367 198.3190918 Z M-89.98901367 255.3190918 C-89.65901367 258.6190918 -89.32901367 261.9190918 -88.98901367 265.3190918 C-92.17595883 267.23668604 -95.36354887 269.15319401 -98.55151367 271.0690918 C-99.44676758 271.60791992 -100.34202148 272.14674805 -101.2644043 272.7019043 C-106.14169231 275.63185021 -111.03561864 278.5196422 -115.98901367 281.3190918 C-115.98901367 281.6490918 -115.98901367 281.9790918 -115.98901367 282.3190918 C-111.00346377 282.63068867 -107.6659919 281.97946582 -103.06323242 280.11206055 C-95.76162371 277.32067341 -87.85930866 276.74599174 -80.14916992 275.8815918 C-76.90318586 275.61476325 -76.90318586 275.61476325 -74.98901367 273.3190918 C-75.26090878 266.92955678 -77.69143452 261.2286791 -79.98901367 255.3190918 C-83.28901367 255.3190918 -86.58901367 255.3190918 -89.98901367 255.3190918 Z M-59.98901367 258.3190918 C-59.98901367 259.9690918 -59.98901367 261.6190918 -59.98901367 263.3190918 C-59.65901367 263.3190918 -59.32901367 263.3190918 -58.98901367 263.3190918 C-58.98901367 261.6690918 -58.98901367 260.0190918 -58.98901367 258.3190918 C-59.31901367 258.3190918 -59.64901367 258.3190918 -59.98901367 258.3190918 Z M-58.98901367 266.3190918 C-57.98901367 268.3190918 -57.98901367 268.3190918 -57.98901367 268.3190918 Z " fill="#000000" transform="translate(238.989013671875,17.680908203125)"/>
<path d="M0 0 C1.52367187 0.00773438 1.52367187 0.00773438 3.078125 0.015625 C8.36472178 0.07055068 13.3922573 0.46568731 18.625 1.25 C22.94368759 1.51192827 27.26922034 1.64020333 31.59375 1.76757812 C32.45484375 1.80173828 33.3159375 1.83589844 34.203125 1.87109375 C34.98075195 1.8961499 35.75837891 1.92120605 36.55957031 1.94702148 C38.625 2.25 38.625 2.25 41.625 4.25 C41.5 6.5625 41.5 6.5625 40.625 9.25 C37.5625 11.0625 37.5625 11.0625 34.625 12.25 C34.625 13.9 34.625 15.55 34.625 17.25 C36.11 17.745 36.11 17.745 37.625 18.25 C37.625 18.91 37.625 19.57 37.625 20.25 C36.965 20.58 36.305 20.91 35.625 21.25 C36.8625 22.2090625 36.8625 22.2090625 38.125 23.1875 C41.46079155 27.27384465 41.1221834 30.17872936 40.625 35.25 C37.53690305 37.01462683 36.39187864 37.25 32.625 37.25 C32.625 37.91 32.625 38.57 32.625 39.25 C33.26695312 39.48976562 33.90890625 39.72953125 34.5703125 39.9765625 C36.625 41.25 36.625 41.25 37.2421875 43.2734375 C37.32726562 44.04945313 37.41234375 44.82546875 37.5 45.625 C38.1869166 49.4865852 38.32870891 50.0104455 41.5625 52.625 C43.0784375 53.429375 43.0784375 53.429375 44.625 54.25 C46.772328 55.93682876 47.54370369 56.70705682 47.953125 59.44140625 C47.92734375 60.22386719 47.9015625 61.00632812 47.875 61.8125 C47.85953125 62.59753906 47.8440625 63.38257813 47.828125 64.19140625 C47.625 66.25 47.625 66.25 46.625 68.25 C48.60744892 67.46658881 50.58588859 66.67302514 52.5625 65.875 C54.21572266 65.21371094 54.21572266 65.21371094 55.90234375 64.5390625 C58.73730186 63.53958568 58.73730186 63.53958568 59.625 61.25 C68.90447783 61.6448714 76.85011327 64.06674218 84.625 69.25 C84.73995315 77.55947039 84.73995315 77.55947039 82.421875 81.07421875 C76.46457895 86.58327166 67.79481951 90.43871261 59.6875 90.8125 C49.86254411 90.33640082 36.3632585 89.00828247 27.625 84.25 C26.625 81.3125 26.625 81.3125 26.625 78.25 C28.69078501 74.76398779 33.01837289 73.67904093 36.625 72.25 C31.11507815 72.66791822 25.61426645 73.12432296 20.125 73.76171875 C-15.85206643 77.93195571 -15.85206643 77.93195571 -30.375 68.25 C-30.85230962 64.52698497 -30.5137261 63.45808915 -28.375 60.25 C-27.99000109 58.59450469 -27.64706865 56.9277567 -27.375 55.25 C-26.715 55.25 -26.055 55.25 -25.375 55.25 C-24.19003452 50.35104783 -24.19003452 50.35104783 -25.8125 45.8125 C-26.328125 45.296875 -26.84375 44.78125 -27.375 44.25 C-27.08625 43.693125 -26.7975 43.13625 -26.5 42.5625 C-26.12875 41.799375 -25.7575 41.03625 -25.375 40.25 C-25.00375 39.5075 -24.6325 38.765 -24.25 38 C-23.07196976 34.29761924 -23.31231743 31.13631906 -23.375 27.25 C-23.045 26.26 -22.715 25.27 -22.375 24.25 C-22.46073227 22.18412885 -22.61333535 20.12053475 -22.8125 18.0625 C-22.96525391 16.43248047 -22.96525391 16.43248047 -23.12109375 14.76953125 C-23.20488281 13.93808594 -23.28867187 13.10664063 -23.375 12.25 C-20.72761084 10.7893715 -19.48051666 10.25 -16.375 10.25 C-16.478125 9.156875 -16.58125 8.06375 -16.6875 6.9375 C-16.375 3.25 -16.375 3.25 -14.56640625 1.53515625 C-9.7441627 -0.4067264 -5.14503063 -0.1036782 0 0 Z M-13.375 5.25 C-13.375 5.91 -13.375 6.57 -13.375 7.25 C-2.155 7.58 9.065 7.91 20.625 8.25 C20.13 6.765 20.13 6.765 19.625 5.25 C8.735 5.25 -2.155 5.25 -13.375 5.25 Z M24.625 6.25 C24.625 6.91 24.625 7.57 24.625 8.25 C28.09 7.755 28.09 7.755 31.625 7.25 C31.625 6.92 31.625 6.59 31.625 6.25 C29.315 6.25 27.005 6.25 24.625 6.25 Z M-2.375 16.25 C-2.045 18.23 -1.715 20.21 -1.375 22.25 C-0.48941406 22.05664062 0.39617187 21.86328125 1.30859375 21.6640625 C11.0411674 19.6182978 20.73598624 18.27884476 30.625 17.25 C30.13 15.765 30.13 15.765 29.625 14.25 C18.85854159 13.85610518 8.31072134 15.06739052 -2.375 16.25 Z M-18.375 16.25 C-18.375 17.24 -18.375 18.23 -18.375 19.25 C-13.755 20.57 -9.135 21.89 -4.375 23.25 C-5.00341973 19.2785831 -5.00341973 19.2785831 -7.375 17.25 C-10.03742821 16.78709779 -10.03742821 16.78709779 -13 16.625 C-14.50433594 16.51285156 -14.50433594 16.51285156 -16.0390625 16.3984375 C-16.80992187 16.34945312 -17.58078125 16.30046875 -18.375 16.25 Z M19.6875 27.0625 C18.72392578 27.14564453 17.76035156 27.22878906 16.76757812 27.31445312 C11.50623312 27.8071423 6.60230195 28.43214444 1.625 30.25 C0.12756112 32.23567734 0.12756112 32.23567734 -0.375 34.25 C2.73896056 35.20132636 5.21068827 35.26678633 8.44140625 34.9453125 C9.37146484 34.85636719 10.30152344 34.76742187 11.25976562 34.67578125 C12.22591797 34.57652344 13.19207031 34.47726563 14.1875 34.375 C17.03320312 34.09765625 17.03320312 34.09765625 19.87890625 33.8203125 C20.81621582 33.7265332 21.75352539 33.63275391 22.71923828 33.53613281 C27.35198679 33.07994215 31.98836949 32.66457995 36.625 32.25 C36.625 30.6 36.625 28.95 36.625 27.25 C30.87024847 25.88166954 25.50175406 26.49308271 19.6875 27.0625 Z M-19.375 30.25 C-19.375 30.91 -19.375 31.57 -19.375 32.25 C-17.27179937 32.75404808 -15.16740209 33.25310508 -13.0625 33.75 C-11.89074219 34.0284375 -10.71898437 34.306875 -9.51171875 34.59375 C-6.41970156 35.35239084 -6.41970156 35.35239084 -3.375 35.25 C-3.375 33.93 -3.375 32.61 -3.375 31.25 C-6.79732972 30.10922343 -9.46173217 30.15184883 -13.0625 30.1875 C-14.24199219 30.19652344 -15.42148437 30.20554688 -16.63671875 30.21484375 C-17.99216797 30.23224609 -17.99216797 30.23224609 -19.375 30.25 Z M-22.375 40.25 C-19.67073166 40.97876719 -16.96373363 41.68317646 -14.25 42.375 C-13.48945313 42.58253906 -12.72890625 42.79007813 -11.9453125 43.00390625 C-7.09477815 44.21653984 -4.09417155 44.40604323 0.625 42.25 C0.295 41.59 -0.035 40.93 -0.375 40.25 C-3.24414188 39.55250663 -3.24414188 39.55250663 -6.625 39.125 C-7.76453125 38.95742187 -8.9040625 38.78984375 -10.078125 38.6171875 C-14.89338042 38.08089128 -18.11745677 37.72701142 -22.375 40.25 Z M22.4921875 37.6875 C21.68652344 37.77773437 20.88085938 37.86796875 20.05078125 37.9609375 C19.20902344 38.05632812 18.36726563 38.15171875 17.5 38.25 C16.65050781 38.34539062 15.80101562 38.44078125 14.92578125 38.5390625 C12.82541022 38.77505925 10.72519058 39.01240268 8.625 39.25 C8.625 39.58 8.625 39.91 8.625 40.25 C15.3935324 40.35152799 21.92824864 40.28026944 28.625 39.25 C28.625 38.59 28.625 37.93 28.625 37.25 C26.54225122 37.25 24.56199235 37.45428255 22.4921875 37.6875 Z M1.625 40.25 C5.625 41.25 5.625 41.25 5.625 41.25 Z M10.125 45.1875 C8.81644043 45.31777588 8.81644043 45.31777588 7.48144531 45.45068359 C3.77141348 45.84071998 0.2333253 46.27605796 -3.375 47.25 C-3.045 49.23 -2.715 51.21 -2.375 53.25 C5.25499776 53.44585021 12.61940238 52.67978288 20.1875 51.75 C21.38697266 51.60691406 22.58644531 51.46382813 23.82226562 51.31640625 C26.75710815 50.96562826 29.69128323 50.61005141 32.625 50.25 C33.63611093 47.20086772 33.63611093 47.20086772 32.625 44.25 C25.06084758 43.97326272 17.6450061 44.43223337 10.125 45.1875 Z M-19.375 46.25 C-19.375 47.9 -19.375 49.55 -19.375 51.25 C-14.83798506 52.70184478 -11.19438524 53.48509196 -6.375 53.25 C-6.705 50.94 -7.035 48.63 -7.375 46.25 C-11.335 46.25 -15.295 46.25 -19.375 46.25 Z M19.75 55.75 C18.87085938 55.89308594 17.99171875 56.03617187 17.0859375 56.18359375 C14.93159971 56.53484448 12.77820055 56.89184387 10.625 57.25 C10.625 57.58 10.625 57.91 10.625 58.25 C14.95949635 57.93068757 19.29233282 57.59318156 23.625 57.25 C25.11966797 57.14171875 25.11966797 57.14171875 26.64453125 57.03125 C27.96517578 56.92296875 27.96517578 56.92296875 29.3125 56.8125 C30.10011719 56.75191406 30.88773437 56.69132812 31.69921875 56.62890625 C33.85622981 56.39030059 33.85622981 56.39030059 35.625 54.25 C30.19209961 54.03624654 25.08553381 54.85806588 19.75 55.75 Z M-1.375 59.25 C-1.375 59.58 -1.375 59.91 -1.375 60.25 C0.275 60.25 1.925 60.25 3.625 60.25 C3.625 59.92 3.625 59.59 3.625 59.25 C1.975 59.25 0.325 59.25 -1.375 59.25 Z M-24.375 60.25 C-24.375 61.57 -24.375 62.89 -24.375 64.25 C-21.98039412 65.06627446 -19.58443474 65.87811645 -17.1875 66.6875 C-16.17719727 67.03264648 -16.17719727 67.03264648 -15.14648438 67.38476562 C-11.57985509 68.58524085 -8.0878839 69.62277495 -4.375 70.25 C-4.24059222 67.82080135 -4.24059222 67.82080135 -5.375 65.25 C-11.38471403 62.24514298 -17.77648732 61.28101761 -24.375 60.25 Z M27.35546875 60.30859375 C26.59325516 60.4172023 25.83104156 60.52581085 25.04573059 60.63771057 C23.44787153 60.86654405 21.850354 61.09777405 20.25317383 61.33129883 C17.80312328 61.68886847 15.35189918 62.0373482 12.90039062 62.38476562 C11.34367291 62.60884007 9.78702943 62.83343101 8.23046875 63.05859375 C7.13051826 63.21490517 7.13051826 63.21490517 6.00834656 63.37437439 C2.19879063 63.9052103 2.19879063 63.9052103 -1.375 65.25 C-1.375 66.9 -1.375 68.55 -1.375 70.25 C-0.46105469 70.14042969 0.45289063 70.03085937 1.39453125 69.91796875 C15.12909256 68.28227378 28.8768581 66.76659618 42.625 65.25 C42.625 63.27 42.625 61.29 42.625 59.25 C37.4186195 59.1345299 32.50271012 59.55248661 27.35546875 60.30859375 Z M58.625 69.25 C60.935 69.58 63.245 69.91 65.625 70.25 C65.625 71.24 65.625 72.23 65.625 73.25 C61.995 73.25 58.365 73.25 54.625 73.25 C54.625 72.59 54.625 71.93 54.625 71.25 C49.15762809 72.99807129 43.86675152 74.90794081 38.625 77.25 C38.625 77.91 38.625 78.57 38.625 79.25 C39.94564453 79.54003906 39.94564453 79.54003906 41.29296875 79.8359375 C42.45441406 80.09632813 43.61585938 80.35671875 44.8125 80.625 C45.96105469 80.88023437 47.10960937 81.13546875 48.29296875 81.3984375 C51.625 82.25 51.625 82.25 54.23828125 83.4140625 C57.28129433 84.47986414 58.57312219 84.29144198 61.625 83.25 C64.08064894 81.8523404 66.4048119 80.43516724 68.75 78.875 C69.37003906 78.47539062 69.99007812 78.07578125 70.62890625 77.6640625 C73.56002197 75.7478062 76.29671057 73.88419607 78.625 71.25 C76.56537148 70.57451422 74.50215678 69.90995688 72.4375 69.25 C71.28894531 68.87875 70.14039063 68.5075 68.95703125 68.125 C63.29193853 66.4997781 63.29193853 66.4997781 58.625 69.25 Z " fill="#000000" transform="translate(298.375,211.75)"/>
<path d="M0 0 C1 3 1 3 -0.01635742 5.32495117 C-0.54076416 6.22189697 -1.0651709 7.11884277 -1.60546875 8.04296875 C-2.17716797 9.03490234 -2.74886719 10.02683594 -3.33789062 11.04882812 C-3.94826172 12.08458984 -4.55863281 13.12035156 -5.1875 14.1875 C-6.3702992 16.22160506 -7.55132438 18.25674285 -8.73046875 20.29296875 C-9.57424072 21.74775635 -9.57424072 21.74775635 -10.43505859 23.23193359 C-12.43043226 26.76134804 -14.23800727 30.34922102 -16 34 C-20.71356722 33.40452652 -24.57959251 32.05652656 -28.9375 30.1875 C-42.27742385 24.70264886 -54.67120588 22.35076607 -69 22 C-67.61115816 17.61622548 -65.61345869 15.33782184 -62.1875 12.3125 C-60.90939453 11.16201172 -60.90939453 11.16201172 -59.60546875 9.98828125 C-54.37501587 5.9968262 -50.35959684 5.69716206 -44 6 C-42.66666667 6.33333333 -41.33333333 6.66666667 -40 7 C-37.33131008 7.0945161 -34.66938242 7.04692274 -32 7 C-27.50074226 7 -25.75443103 8.04479294 -22 10.22265625 C-19.48370387 11.20066979 -18.53946841 10.82892745 -16 10 C-14.04119105 8.98009004 -14.04119105 8.98009004 -12.109375 7.71484375 C-11.40039062 7.26689453 -10.69140625 6.81894531 -9.9609375 6.35742188 C-9.23132813 5.88884766 -8.50171875 5.42027344 -7.75 4.9375 C-7.00492188 4.46505859 -6.25984375 3.99261719 -5.4921875 3.50585938 C-3.65837057 2.34209094 -1.82876756 1.17168712 0 0 Z " fill="#F65273" transform="translate(260,125)"/>
<path d="M0 0 C2.11314013 1.789954 3.91096047 3.67284371 5.7421875 5.75 C6.86367188 6.91982422 6.86367188 6.91982422 8.0078125 8.11328125 C13.7421875 14.23863636 13.7421875 14.23863636 13.7421875 17.75 C12.5253125 18.1625 11.3084375 18.575 10.0546875 19 C7.14676035 20.06623996 5.58837527 20.88130313 3.1796875 22.9375 C-0.05463887 25.34251192 -2.31710007 24.75 -6.2578125 24.75 C-9.41348904 27.56756834 -10.69732355 31.88593213 -12.2578125 35.75 C-13.7428125 35.255 -13.7428125 35.255 -15.2578125 34.75 C-15.2578125 29.47 -15.2578125 24.19 -15.2578125 18.75 C-22.34889402 19.63638519 -27.74619325 20.34777261 -33.5390625 24.62890625 C-35.42848372 25.86132418 -37.05667355 26.32039174 -39.2578125 26.75 C-39.5878125 25.76 -39.9178125 24.77 -40.2578125 23.75 C-39.51917969 23.22277344 -38.78054687 22.69554688 -38.01953125 22.15234375 C-34.92657784 19.46186801 -33.16936735 16.82445831 -31.0703125 13.3125 C-30.39613281 12.20003906 -29.72195312 11.08757812 -29.02734375 9.94140625 C-27.52992338 7.24076069 -26.35877836 4.62503408 -25.2578125 1.75 C-20.55248882 -2.95532368 -5.40906916 -2.99464036 0 0 Z " fill="#F65374" transform="translate(282.2578125,70.25)"/>
<path d="M0 0 C0.33 4.95 0.66 9.9 1 15 C-3.29 15 -7.58 15 -12 15 C-13.0992886 18.2978658 -13.10418695 20.90759014 -13.1875 24.375 C-13.59821886 30.4549857 -13.59821886 30.4549857 -15.29296875 32.75390625 C-16.8190716 33.89565727 -18.40928936 34.95013098 -20 36 C-21.86923203 39.14988873 -21.86923203 39.14988873 -23 42 C-23.66 42 -24.32 42 -25 42 C-24.16252352 32.62526327 -23.02391727 25.14948413 -18 17 C-18.33 16.67 -18.66 16.34 -19 16 C-20.98 18.97 -20.98 18.97 -23 22 C-23.99 21.67 -24.98 21.34 -26 21 C-24.3437502 17.33510682 -22.12778885 14.23508687 -19.75 11 C-19.00234375 9.96875 -18.2546875 8.9375 -17.484375 7.875 C-12.26820784 1.83868078 -7.90875181 0 0 0 Z " fill="#ED4F6F" transform="translate(233,77)"/>
<path d="M0 0 C0.99 0 1.98 0 3 0 C4.42944945 2.35438733 5.08661261 3.48032433 4.625 6.25 C4.41875 6.8275 4.2125 7.405 4 8 C2.68 7.67 1.36 7.34 0 7 C-1.125 2.25 -1.125 2.25 0 0 Z " fill="#000000" transform="translate(165,194)"/>
<path d="M0 0 C0.125 2.375 0.125 2.375 0 5 C-0.66 5.66 -1.32 6.32 -2 7 C-4.125 6.625 -4.125 6.625 -6 6 C-5.6875 4.125 -5.6875 4.125 -5 2 C-2 0 -2 0 0 0 Z " fill="#000000" transform="translate(207,193)"/>
<path d="M0 0 C2 1.25 2 1.25 4 3 C4 4.32 4 5.64 4 7 C2.35 6.67 0.7 6.34 -1 6 C-1.042721 4.33388095 -1.04063832 2.66617115 -1 1 C-0.67 0.67 -0.34 0.34 0 0 Z " fill="#000000" transform="translate(199,198)"/>
<path d="M0 0 C0.99 0 1.98 0 3 0 C4.4606285 2.64738916 5 3.89448334 5 7 C1.125 6.125 1.125 6.125 0 5 C-0.04063832 3.33382885 -0.042721 1.66611905 0 0 Z " fill="#000000" transform="translate(212,197)"/>
<path d="M0 0 C0.99 0.33 1.98 0.66 3 1 C2.75 2.875 2.75 2.875 2 5 C-0.0625 6.25 -0.0625 6.25 -2 7 C-2.125 4.625 -2.125 4.625 -2 2 C-1.34 1.34 -0.68 0.68 0 0 Z " fill="#000000" transform="translate(156,190)"/>
<path d="M0 0 C1.32 0 2.64 0 4 0 C4.33 1.98 4.66 3.96 5 6 C3.0625 5.25 3.0625 5.25 1 4 C0.25 1.875 0.25 1.875 0 0 Z " fill="#000000" transform="translate(183,194)"/>
<path d="M0 0 C0.99 0.33 1.98 0.66 3 1 C3 2.65 3 4.3 3 6 C1.68 5.67 0.36 5.34 -1 5 C-0.67 3.35 -0.34 1.7 0 0 Z " fill="#000000" transform="translate(236,192)"/>
<path d="M0 0 C1.32 0.33 2.64 0.66 4 1 C4 2.32 4 3.64 4 5 C2.68 4.67 1.36 4.34 0 4 C0 2.68 0 1.36 0 0 Z " fill="#000000" transform="translate(227,195)"/>
<path d="M0 0 C0.66 0.99 1.32 1.98 2 3 C1.01 4.485 1.01 4.485 0 6 C-0.99 5.67 -1.98 5.34 -3 5 C-1.125 1.125 -1.125 1.125 0 0 Z " fill="#D94966" transform="translate(210,93)"/>
<path d="M0 0 C0.66 0.33 1.32 0.66 2 1 C2 1.66 2 2.32 2 3 C1.01 3 0.02 3 -1 3 C-0.67 2.01 -0.34 1.02 0 0 Z " fill="#000000" transform="translate(353,286)"/>
</svg>
