<?xml version="1.0" encoding="UTF-8"?>
<svg version="1.1" xmlns="http://www.w3.org/2000/svg" width="400" height="314">
<path d="M0 0 C1.07378906 -0.020625 2.14757812 -0.04125 3.25390625 -0.0625 C19.15127679 -0.13902164 33.20931232 4.76096552 44.80859375 15.8203125 C53.31432539 25.25090979 57.47938731 36.50784672 57.33984375 49.11328125 C56.64974855 55.48278066 53.7127135 60.92419496 49.1875 65.4375 C42.07374329 70.88013713 32.73338112 74.19737375 24.203125 76.7109375 C12.98428887 79.84151399 12.98428887 79.84151399 5.2578125 88.2578125 C3.63945612 90.82104776 1.73381904 92.00735498 -1 93.25 C1.19832713 94.98666727 1.19832713 94.98666727 4 96.25 C5.68064812 95.61940971 7.34630643 94.94822617 9 94.25 C27.57591442 91.42193611 44.37981132 106.04903272 58.82739258 115.84375 C62.15446683 118.08469665 65.49272523 120.11082596 69.0625 121.9375 C73.29922186 124.18424644 76.40450352 127.20916823 79 131.25 C79 131.91 79 132.57 79 133.25 C79.68707031 133.35441406 80.37414062 133.45882812 81.08203125 133.56640625 C84.52514544 134.37302604 87.46250375 135.73642908 90.6875 137.1875 C99.23289505 140.84656255 107.79952731 141.63874294 117 142.25 C116.65066406 141.35796875 116.30132812 140.4659375 115.94140625 139.546875 C115.48636719 138.37640625 115.03132813 137.2059375 114.5625 136 C114.11003906 134.83984375 113.65757812 133.6796875 113.19140625 132.484375 C109.99872211 123.81702264 109.95169252 116.00017947 113.71875 107.45703125 C115.66937169 104.09696645 117.75320514 102.36747491 121 100.25 C121.66 100.25 122.32 100.25 123 100.25 C122.9071875 98.6103125 122.9071875 98.6103125 122.8125 96.9375 C123 93.25 123 93.25 124.0625 91.25 C127.36735044 89.54427074 129.48457645 90.25396333 133 91.25 C140.18150375 95.28562379 145.41964089 103.8696763 147.6953125 111.6171875 C147.79585938 112.15601563 147.89640625 112.69484375 148 113.25 C148.19335938 112.41855469 148.38671875 111.58710938 148.5859375 110.73046875 C148.84632813 109.64378906 149.10671875 108.55710937 149.375 107.4375 C149.63023437 106.35855469 149.88546875 105.27960938 150.1484375 104.16796875 C151 101.25 151 101.25 153 98.25 C155.3125 98.375 155.3125 98.375 158 99.25 C159.8125 102.3125 159.8125 102.3125 161 105.25 C161.391875 104.59 161.78375 103.93 162.1875 103.25 C164 101.25 164 101.25 166.5 100.75 C169 101.25 169 101.25 170.75 103 C175.488695 111.529651 174.01523185 126.09927521 172.0625 135.3125 C168.46122936 147.29397863 162.61528492 160.09140883 154 169.25 C153.38640625 169.9409375 152.7728125 170.631875 152.140625 171.34375 C142.07068691 182.13872364 129.54271357 186.88250016 114.9375 187.5 C98.93248042 187.17775128 80.78769057 180.43814354 67.875 171.0859375 C67.25625 170.81007812 66.6375 170.53421875 66 170.25 C64.65179257 170.88604948 63.3190498 171.55550029 62 172.25 C57.80946332 172.00234775 55.97561147 170.66550893 53.1875 167.625 C49.32541351 163.56002716 45.25286168 159.89764675 41 156.25 C39.49872674 154.93895657 37.99869166 153.62649374 36.5 152.3125 C35.49453125 151.43271484 35.49453125 151.43271484 34.46875 150.53515625 C33.9840625 150.11105469 33.499375 149.68695313 33 149.25 C33.9846454 157.08082696 35.13316751 164.74691968 37.25 172.359375 C38 175.25 38 175.25 38.4375 178.265625 C38.95562022 181.29339002 39.49799205 183.56527321 41 186.25 C44.72431833 188.68985871 48.80185007 189.83785151 53 191.25 C78.9509966 203.12482879 109.42283278 217.81212156 124 243.25 C124.43828125 244.00410156 124.8765625 244.75820313 125.328125 245.53515625 C128.45245674 251.59679987 128.92557536 257.52029584 128 264.25 C124.91502845 271.06264552 117.65449631 276.92275184 111 280.25 C107.08145806 281.58402143 103.04848413 281.42929804 98.95703125 281.453125 C98.16435852 281.46004868 97.37168579 281.46697235 96.55499268 281.47410583 C93.974112 281.49147116 91.39343656 281.4977071 88.8125 281.5 C87.9340744 281.50133942 87.0556488 281.50267883 86.15060425 281.50405884 C72.42030403 281.49951503 59.06096039 280.84830117 45.48193359 278.65136719 C43.23717432 278.28835477 40.99135408 277.97005524 38.73828125 277.6640625 C23.00595178 275.21433678 7.11975553 269.73250701 -6.57421875 261.59765625 C-9.60210468 259.9154974 -11.69842258 258.9983568 -15.16186523 259.66796875 C-15.95278564 259.92191406 -16.74370605 260.17585938 -17.55859375 260.4375 C-18.48317383 260.72061035 -19.40775391 261.0037207 -20.36035156 261.29541016 C-21.37581055 261.6104248 -22.39126953 261.92543945 -23.4375 262.25 C-34.44351036 265.51158947 -45.46745163 267.82621657 -56.75 269.875 C-66.82872475 271.70814116 -76.86379588 273.53529489 -86.8125 276 C-87.62936279 276.20020752 -88.44622559 276.40041504 -89.2878418 276.60668945 C-90.81370957 276.98083343 -92.33951119 277.35524732 -93.86523438 277.72998047 C-103.43703247 280.06162845 -112.62859312 281.51893382 -122.5 281.625 C-123.32508057 281.63893799 -124.15016113 281.65287598 -125.00024414 281.66723633 C-131.29446353 281.61805775 -137.02140427 280.72832965 -142.0234375 276.56640625 C-142.46945313 275.98761719 -142.91546875 275.40882813 -143.375 274.8125 C-143.83648437 274.23628906 -144.29796875 273.66007812 -144.7734375 273.06640625 C-148.67054487 267.29521222 -148.79766749 262.10654612 -148 255.25 C-143.68778307 241.01549752 -130.70286173 232.18561351 -119 224.25 C-117.96020996 223.53457031 -117.96020996 223.53457031 -116.89941406 222.8046875 C-107.00915388 216.05784335 -96.70441381 210.40405071 -85.9375 205.1875 C-84.24318848 204.36499756 -84.24318848 204.36499756 -82.51464844 203.52587891 C-76.12966798 200.50534287 -69.84327795 198.01746914 -63 196.25 C-63.061875 195.528125 -63.12375 194.80625 -63.1875 194.0625 C-62.96127017 190.66905262 -61.77449446 189.11869836 -60 186.25 C-59.05872427 183.17355216 -59.05872427 183.17355216 -58.39453125 179.85546875 C-58.13349609 178.65341797 -57.87246094 177.45136719 -57.60351562 176.21289062 C-57.34248047 174.96701172 -57.08144531 173.72113281 -56.8125 172.4375 C-56.40354492 170.53967773 -56.40354492 170.53967773 -55.98632812 168.60351562 C-55.31605356 165.48732685 -54.65426471 162.36958238 -54 159.25 C-54.49927002 159.60827881 -54.99854004 159.96655762 -55.51293945 160.33569336 C-57.77669125 161.95686909 -60.04452781 163.57223444 -62.3125 165.1875 C-63.09818359 165.75146484 -63.88386719 166.31542969 -64.69335938 166.89648438 C-65.45068359 167.43466797 -66.20800781 167.97285156 -66.98828125 168.52734375 C-67.68477783 169.02484131 -68.38127441 169.52233887 -69.09887695 170.03491211 C-71 171.25 -71 171.25 -74 172.25 C-74.33 171.92 -74.66 171.59 -75 171.25 C-75.33 171.91 -75.66 172.57 -76 173.25 C-77.78669949 174.1608664 -79.57923943 175.06114568 -81.390625 175.921875 C-84.5046646 177.50686522 -87.44619515 179.31918924 -90.4375 181.125 C-109.17894205 191.95053616 -134.53724933 198.13645788 -155.86328125 192.4921875 C-169.31394842 188.06444367 -180.77893208 179.67566716 -187.71484375 167.15625 C-192.56540023 156.18721043 -193.63713088 145.22978791 -193.09423828 133.37890625 C-192.99918655 131.2316236 -192.94865476 129.08633102 -192.90234375 126.9375 C-192.64455552 118.59785839 -192.18407201 110.43407201 -186 104.25 C-183.5625 104.1875 -183.5625 104.1875 -181 105.25 C-179.1875 108.8125 -179.1875 108.8125 -178 112.25 C-177.74605469 111.50234375 -177.49210937 110.7546875 -177.23046875 109.984375 C-176.71419922 108.50710937 -176.71419922 108.50710937 -176.1875 107 C-175.68283203 105.53820312 -175.68283203 105.53820312 -175.16796875 104.046875 C-174.05867958 101.39051698 -172.8306717 99.45310061 -171 97.25 C-169.125 97.4375 -169.125 97.4375 -167 98.25 C-165.47835901 101.14111788 -165 102.96823412 -165 106.25 C-164.46375 105.363125 -163.9275 104.47625 -163.375 103.5625 C-160.72105667 99.56262827 -157.32730054 96.41365027 -153 94.25 C-146.90089642 93.73312681 -142.80241762 94.29075494 -138 98.25 C-135.58081279 101.25763815 -134.174908 103.70341251 -133 107.375 C-131.87713941 110.60322418 -130.46093894 111.94783132 -128 114.25 C-125.59945793 121.45162621 -126.4176987 127.84225833 -129.6875 134.625 C-132.00661718 138.86661575 -134.27270303 142.18046132 -138 145.25 C-119.96433077 144.90616575 -95.09882271 141.74516515 -81 129.25 C-80.608125 128.3425 -80.21625 127.435 -79.8125 126.5 C-77.61909458 122.56699718 -75.1080848 120.79744417 -71.5234375 118.1640625 C-68.89682057 116.17173696 -66.49061717 114.04146561 -64.0625 111.8125 C-53.25882203 101.98333731 -46.11166127 95.70259865 -31.125 96.0625 C-30.05507812 96.07603516 -28.98515625 96.08957031 -27.8828125 96.10351562 C-25.25468489 96.13871376 -22.62760806 96.18795307 -20 96.25 C-19.74969023 93.83380177 -19.74969023 93.83380177 -20 91.25 C-20.99 90.59 -21.98 89.93 -23 89.25 C-23.33 89.58 -23.66 89.91 -24 90.25 C-25.17949219 90.19972656 -26.35898438 90.14945312 -27.57421875 90.09765625 C-32.32822833 90.03933135 -35.65283919 91.52954399 -39.8125 93.6875 C-51.0844292 99.29570123 -51.0844292 99.29570123 -58 98.25 C-60.43119623 96.37984906 -61.64069173 94.96861655 -63 92.25 C-63.07092842 90.0427077 -63.08415025 87.83332548 -63.0625 85.625 C-63.05347656 84.43648438 -63.04445312 83.24796875 -63.03515625 82.0234375 C-63.01775391 80.65058594 -63.01775391 80.65058594 -63 79.25 C-64.11117187 79.34539062 -65.22234375 79.44078125 -66.3671875 79.5390625 C-87.06650075 81.15514118 -87.06650075 81.15514118 -96.3046875 74.796875 C-100.28350554 71.16643273 -101.78129722 66.99962227 -102.4375 61.75 C-101.35016244 53.05129948 -97.94683953 47.67055492 -91 42.25 C-79.35048968 34.78150062 -67.17656871 32.97925892 -53.6315918 33.23022461 C-45.16991088 33.36205482 -36.07260474 33.4198863 -29 28.25 C-27.87627779 24.87883338 -28.03529396 22.5377619 -28.1875 19 C-28.20751601 13.00186755 -27.91161243 9.8461446 -24 5.25 C-16.33084481 0.14246837 -8.96825006 0.04185881 0 0 Z M19 8.25 C22.26911227 11.77303518 22.26911227 11.77303518 26.25 14.375 C26.8275 14.66375 27.405 14.9525 28 15.25 C28.33 16.24 28.66 17.23 29 18.25 C29 17.59 29 16.93 29 16.25 C29.66 16.25 30.32 16.25 31 16.25 C30.67 17.24 30.34 18.23 30 19.25 C30.66 19.25 31.32 19.25 32 19.25 C32 19.91 32 20.57 32 21.25 C32.66 21.25 33.32 21.25 34 21.25 C34.33 22.9 34.66 24.55 35 26.25 C35.66 26.25 36.32 26.25 37 26.25 C37.103125 27.136875 37.20625 28.02375 37.3125 28.9375 C37.75145137 32.21768225 37.75145137 32.21768225 39.53515625 34.3203125 C41.70261154 38.65522308 41.28159041 42.66830074 41.125 47.4375 C41.08172982 49.24339367 41.0424679 51.04938922 41.0078125 52.85546875 C40.97131592 54.04885864 40.97131592 54.04885864 40.93408203 55.26635742 C40.86444394 57.32660519 40.86444394 57.32660519 42 59.25 C41.34 59.25 40.68 59.25 40 59.25 C37.26602464 61.77892721 35.06936578 64.14595133 33 67.25 C40.25588053 65.25463286 46.89502177 61.7232349 51 55.25 C54.03270476 48.27477904 53.40066076 42.00626038 51.10546875 34.9375 C45.64930955 21.67305644 36.9712159 14.67529058 24 9.25 C22.34465524 8.86435429 20.6794439 8.51145189 19 8.25 Z M-24 14.25 C-23 16.25 -23 16.25 -23 16.25 Z M-24 18.25 C-23.98839844 18.84167969 -23.97679687 19.43335937 -23.96484375 20.04296875 C-23.91677614 24.25231785 -23.93993117 28.1422333 -25 32.25 C-19.20200116 36.2833905 -14.98629919 36.75604984 -8 36.25 C-8 35.59 -8 34.93 -8 34.25 C-7.38125 34.600625 -6.7625 34.95125 -6.125 35.3125 C-5.42375 35.621875 -4.7225 35.93125 -4 36.25 C-3.34 35.92 -2.68 35.59 -2 35.25 C-1.67 35.91 -1.34 36.57 -1 37.25 C-0.01 36.92 0.98 36.59 2 36.25 C2 36.91 2 37.57 2 38.25 C4.31 38.58 6.62 38.91 9 39.25 C9.495 40.735 9.495 40.735 10 42.25 C11.32 41.92 12.64 41.59 14 41.25 C14 38.94 14 36.63 14 34.25 C13.01 34.25 12.02 34.25 11 34.25 C11.495 35.735 11.495 35.735 12 37.25 C11.34 36.92 10.68 36.59 10 36.25 C10 34.6 10 32.95 10 31.25 C9.47156494 31.08395264 8.94312988 30.91790527 8.39868164 30.74682617 C5.95303738 29.97784456 3.50776792 29.20767746 1.0625 28.4375 C0.23169922 28.17646484 -0.59910156 27.91542969 -1.45507812 27.64648438 C-2.28330078 27.38544922 -3.11152344 27.12441406 -3.96484375 26.85546875 C-4.79741699 26.59427246 -5.62999023 26.33307617 -6.48779297 26.06396484 C-8.17745877 25.51650656 -9.85899046 24.94334786 -11.53173828 24.34619141 C-12.32692871 24.06308105 -13.12211914 23.7799707 -13.94140625 23.48828125 C-14.65111572 23.22700439 -15.3608252 22.96572754 -16.09204102 22.6965332 C-18.20335281 22.02662148 -18.20335281 22.02662148 -21 23.25 C-21 22.26 -21 21.27 -21 20.25 C-20.34 19.92 -19.68 19.59 -19 19.25 C-20.65 18.92 -22.3 18.59 -24 18.25 Z M-89 47.25 C-89.33 47.91 -89.66 48.57 -90 49.25 C-89.34 49.25 -88.68 49.25 -88 49.25 C-88.33 48.59 -88.66 47.93 -89 47.25 Z M-94.5625 51.75 C-97.58542927 55.55332941 -98 58.40792528 -98 63.25 C-96.29682181 68.45972153 -93.74560533 70.63507461 -89 73.25 C-84.6593587 74.59138256 -80.37851305 74.43394272 -75.875 74.4375 C-74.63943359 74.45586914 -74.63943359 74.45586914 -73.37890625 74.47460938 C-71.25129286 74.47983265 -69.12408323 74.3726232 -67 74.25 C-66.34 73.59 -65.68 72.93 -65 72.25 C-66.32 71.92 -67.64 71.59 -69 71.25 C-69 71.91 -69 72.57 -69 73.25 C-69.66 73.25 -70.32 73.25 -71 73.25 C-70.67 71.93 -70.34 70.61 -70 69.25 C-72.31 68.92 -74.62 68.59 -77 68.25 C-77 69.24 -77 70.23 -77 71.25 C-77.66 71.25 -78.32 71.25 -79 71.25 C-78.67 70.26 -78.34 69.27 -78 68.25 C-78.66 68.25 -79.32 68.25 -80 68.25 C-80 67.59 -80 66.93 -80 66.25 C-80.70125 66.25 -81.4025 66.25 -82.125 66.25 C-86.55436977 64.70934965 -88.67598167 61.21406923 -91 57.25 C-91.671875 54.98828125 -91.671875 54.98828125 -92 53.25 C-91.34 53.25 -90.68 53.25 -90 53.25 C-90 51.93 -90 50.61 -90 49.25 C-92.35807283 49.01722538 -92.35807283 49.01722538 -94.5625 51.75 Z M-17.0625 59.6875 C-17.80822266 59.91759766 -18.55394531 60.14769531 -19.32226562 60.38476562 C-22.94680504 61.290346 -22.94680504 61.290346 -26 63.25 C-26.1546875 64.9515625 -26.1546875 64.9515625 -26.3125 66.6875 C-27 70.25 -27 70.25 -29.0625 71.6875 C-30.0215625 71.9659375 -30.0215625 71.9659375 -31 72.25 C-31 72.91 -31 73.57 -31 74.25 C-29.35 74.25 -27.7 74.25 -26 74.25 C-26.33 75.57 -26.66 76.89 -27 78.25 C-20.97115527 84.10246895 -15.58328485 88.1510447 -7 88.6875 C-2.51016029 88.51003598 1.34386355 86.8161615 5 84.25 C7.3669297 80.69960545 7.44642293 78.59829283 7.75 74.375 C7.84796875 73.16070312 7.9459375 71.94640625 8.046875 70.6953125 C8.00079096 67.3081354 7.48625889 65.25681606 6 62.25 C6.66 61.92 7.32 61.59 8 61.25 C0.575 60.26 0.575 60.26 -7 59.25 C-7 58.59 -7 57.93 -7 57.25 C-10.48719816 57.25 -13.75957098 58.64582907 -17.0625 59.6875 Z M-59 81.25 C-58 83.25 -58 83.25 -58 83.25 Z M-15 92.25 C-15.433125 93.920625 -15.433125 93.920625 -15.875 95.625 C-17 99.25 -17 99.25 -19 101.25 C-21.68839385 101.51991906 -24.29141936 101.33737357 -27 101.25 C-22.53101886 106.24474362 -19.06344561 107.99553904 -12.37890625 108.55078125 C-2.76586532 108.65959009 -2.76586532 108.65959009 6 105.25 C1.36062908 101.73113887 1.36062908 101.73113887 -4 100.25 C-4.268125 99.115625 -4.53625 97.98125 -4.8125 96.8125 C-5.204375 95.636875 -5.59625 94.46125 -6 93.25 C-9.1964086 92.18453047 -11.65747276 92.17572162 -15 92.25 Z M-160.47265625 109.59375 C-165.50021506 119.0918786 -168.10007223 129.63535267 -165 140.25 C-168.875 138.5 -168.875 138.5 -170 136.25 C-170.08559118 134.07175039 -170.10713412 131.89084745 -170.09765625 129.7109375 C-170.09443359 128.40898437 -170.09121094 127.10703125 -170.08789062 125.765625 C-170.07953466 124.38541601 -170.07106971 123.00520768 -170.0625 121.625 C-170.05748501 120.23698074 -170.0529221 118.84895978 -170.04882812 117.4609375 C-170.03700976 114.05724868 -170.02053434 110.65364561 -170 107.25 C-172.25119937 110.62679906 -172.81850996 113.5919863 -173.5 117.5 C-173.62673096 118.19931641 -173.75346191 118.89863281 -173.8840332 119.61914062 C-175.15495041 126.79873623 -176.11623325 134.01350994 -177 141.25 C-178.89135742 140.99389648 -178.89135742 140.99389648 -181 140.25 C-184.58463494 134.40908933 -184.37667988 127.29909434 -184.1875 120.6875 C-184.17396484 119.77419922 -184.16042969 118.86089844 -184.14648438 117.91992188 C-184.11155315 115.69596741 -184.06251586 113.47332048 -184 111.25 C-184.99 111.745 -184.99 111.745 -186 112.25 C-188.40383975 120.13114679 -188.36578289 128.52574881 -188.375 136.6875 C-188.39949219 137.82509766 -188.42398438 138.96269531 -188.44921875 140.13476562 C-188.49531472 153.60247092 -184.35943139 164.41626015 -175.12109375 174.25 C-166.07392471 182.73057866 -157.26381147 185.223879 -145 185.25 C-143.88238281 185.27320313 -142.76476562 185.29640625 -141.61328125 185.3203125 C-119.79600674 184.88054661 -95.97025832 175.23017221 -78 163.25 C-77.59330156 160.33763733 -77.59330156 160.33763733 -77.75 156.9375 C-77.77578125 155.69097656 -77.8015625 154.44445312 -77.828125 153.16015625 C-78.07650336 147.50954865 -78.47614213 141.88147212 -79 136.25 C-79.50225098 136.50168945 -80.00450195 136.75337891 -80.52197266 137.01269531 C-90.81672968 142.13308734 -100.71270315 146.78260781 -112 149.25 C-113.00546875 149.47300781 -114.0109375 149.69601563 -115.046875 149.92578125 C-121.87419575 151.19940581 -128.63665993 151.44780454 -135.5625 151.5 C-136.43213379 151.5093457 -137.30176758 151.51869141 -138.19775391 151.52832031 C-139.02065918 151.52413086 -139.84356445 151.51994141 -140.69140625 151.515625 C-141.42560791 151.51336914 -142.15980957 151.51111328 -142.91625977 151.50878906 C-145.29183282 151.21375597 -146.93076949 150.42574559 -149 149.25 C-147.6038886 145.95916598 -146.06253393 144.29435757 -143.25 142.125 C-137.8891568 137.61368933 -134.21471757 131.89415272 -132 125.25 C-131.6946182 120.595203 -131.6946182 120.595203 -133 116.25 C-134.65 116.58 -136.3 116.91 -138 117.25 C-138.01417969 118.095625 -138.02835938 118.94125 -138.04296875 119.8125 C-138.41282147 128.60899718 -139.87359513 133.84850147 -145.875 140.25 C-149.04895903 141.74362778 -151.54907885 141.62646413 -155 141.25 C-157.38221417 139.77138431 -157.96152889 138.32896702 -159.1875 135.8125 C-160.9287689 128.1777056 -161.03754905 120.90210004 -157.36328125 113.87109375 C-154.66686476 110.66475322 -152.04159563 109.34801715 -147.88671875 108.95703125 C-146.30310547 109.00923828 -146.30310547 109.00923828 -144.6875 109.0625 C-143.08455078 109.10310547 -143.08455078 109.10310547 -141.44921875 109.14453125 C-140.64097656 109.17933594 -139.83273438 109.21414062 -139 109.25 C-138.76417387 106.18292627 -138.76417387 106.18292627 -140.4375 103.5625 C-143.15607972 101.10914757 -143.82450452 100.80058843 -147.3125 100.5625 C-153.71688671 100.97263314 -157.15982396 104.32133787 -160.47265625 109.59375 Z M129 99.25 C129.68835938 100.28447266 129.68835938 100.28447266 130.390625 101.33984375 C137.8023025 112.69092126 142.42252898 122.39905994 141 136.25 C139.81977763 139.10399228 138.1912778 141.0587222 136 143.25 C132.68507416 143.61832509 130.71572657 143.71311719 127.875 141.875 C122.45113796 134.28159315 121.43308335 126.75463733 121.75 117.625 C121.76804687 116.62082031 121.78609375 115.61664063 121.8046875 114.58203125 C121.85126003 112.13697348 121.91662972 109.69403188 122 107.25 C118.61193206 110.48626042 116.969312 112.57967856 116 117.25 C116 122.89782508 117.39915642 127.90488764 119.3125 133.17578125 C120 135.25 120 135.25 120.5 138.625 C121.04923584 141.50848814 121.72355578 142.46843496 124 144.25 C119.9727217 148.72475367 117.07532675 150.08529153 111.0625 150.5625 C99.1629759 150.2650119 87.04993104 146.81230219 77.20703125 140.11328125 C76.41401611 139.57614502 75.62100098 139.03900879 74.80395508 138.4855957 C73.91099731 137.87397583 73.91099731 137.87397583 73 137.25 C71.9606132 140.64043406 70.94682907 144.03800806 69.9375 147.4375 C69.64294922 148.39720703 69.34839844 149.35691406 69.04492188 150.34570312 C68.77099609 151.27705078 68.49707031 152.20839844 68.21484375 153.16796875 C67.95823975 154.02156982 67.70163574 154.8751709 67.43725586 155.75463867 C66.9284321 158.65842856 67.0132898 160.46845292 68 163.25 C69.74861304 164.76106435 69.74861304 164.76106435 72.05859375 165.75 C72.91138916 166.16000244 73.76418457 166.57000488 74.64282227 166.99243164 C75.56506592 167.4074292 76.48730957 167.82242676 77.4375 168.25 C78.37585693 168.68497803 79.31421387 169.11995605 80.28100586 169.56811523 C88.95703466 173.46805339 97.75844139 176.08793787 107 178.25 C107.69222656 178.44722656 108.38445312 178.64445312 109.09765625 178.84765625 C120.58567613 181.27736066 131.94221862 178.57069165 141.8203125 172.5234375 C156.96795391 161.26693333 165.6248735 141.85548567 168.6015625 123.55078125 C169.16593475 117.7954968 169.08246851 113.71141547 167 108.25 C163.42886066 110.94114512 162.81708599 114.68079809 161.8125 118.8125 C161.63525391 119.49763672 161.45800781 120.18277344 161.27539062 120.88867188 C160.32317536 124.52383056 160.32317536 124.52383056 160 128.25 C158.515 127.755 158.515 127.755 157 127.25 C156.67 119.99 156.34 112.73 156 105.25 C154.27583622 108.69832757 153.57552073 110.80624702 152.96484375 114.49609375 C152.71057617 115.99946289 152.71057617 115.99946289 152.45117188 117.53320312 C152.1969043 119.09458008 152.1969043 119.09458008 151.9375 120.6875 C151.59288719 122.7487714 151.24784973 124.80997187 150.90234375 126.87109375 C150.75273193 127.7830249 150.60312012 128.69495605 150.44897461 129.63452148 C150.0113844 132.18368079 149.51941796 134.7163724 149 137.25 C148.01 137.25 147.02 137.25 146 137.25 C145.98582031 136.23421875 145.97164063 135.2184375 145.95703125 134.171875 C145.58649424 121.34848021 142.49736876 110.73181858 133.9375 100.875 C132.03836107 98.92869387 132.03836107 98.92869387 129 99.25 Z M127 109.25 C124.50642034 117.53511951 125.22350735 126.55176499 129 134.25 C129.66 134.91 130.32 135.57 131 136.25 C133.60280568 135.92958603 133.60280568 135.92958603 136 135.25 C137.98328772 128.39864243 135.6965414 122.48444516 132.49609375 116.3828125 C131.06391818 113.94638852 129.63722693 111.55388221 128 109.25 C127.67 109.25 127.34 109.25 127 109.25 Z M-153.9375 117.6875 C-156.65090503 121.55593555 -157.13686329 125.60520212 -157 130.25 C-156.65875265 133.24038738 -156.65875265 133.24038738 -155 135.25 C-152.25740536 136.76341907 -152.25740536 136.76341907 -149 136.25 C-146.03292846 133.72147945 -143.7411154 130.73223079 -142 127.25 C-141.9047301 125.77331663 -141.87014041 124.29224543 -141.875 122.8125 C-141.87242187 122.03003906 -141.86984375 121.24757813 -141.8671875 120.44140625 C-141.91617452 118.07104653 -141.91617452 118.07104653 -143 115.25 C-148.99683839 114.56363414 -148.99683839 114.56363414 -153.9375 117.6875 Z M-180 118.25 C-179 122.25 -179 122.25 -179 122.25 Z M35 191.25 C34.67 192.24 34.34 193.23 34 194.25 C32.25 195.25 32.25 195.25 30 196.25 C29.195625 196.745 28.39125 197.24 27.5625 197.75 C25 199.25 25 199.25 22.3125 200.1875 C19.82634768 201.01543056 19.82634768 201.01543056 19.125 203.3125 C18.75375 203.951875 18.3825 204.59125 18 205.25 C16.96875 205.394375 15.9375 205.53875 14.875 205.6875 C11.18107071 206.22371554 9.95838474 206.70756936 7 208.6875 C-0.69102789 213.75625362 -8.05704041 213.46753145 -17 213.25 C-17.99 213.25 -18.98 213.25 -20 213.25 C-21.65555839 212.75333248 -23.3109374 212.25604767 -24.96484375 211.75390625 C-27.91207597 211.02416929 -30.86349449 210.80854391 -33.88671875 210.59375 C-36.2497632 210.20937308 -37.87092382 209.32471532 -40 208.25 C-40.80179687 208.09273437 -41.60359375 207.93546875 -42.4296875 207.7734375 C-45.29147884 207.19064109 -47.52113522 206.18887673 -50.125 204.875 C-51.39730469 204.24464844 -51.39730469 204.24464844 -52.6953125 203.6015625 C-55 202.25 -55 202.25 -56.4921875 200.5234375 C-56.98976563 200.10320312 -57.48734375 199.68296875 -58 199.25 C-61.71283915 199.69158034 -64.59926505 200.88772078 -67.88671875 202.62109375 C-69.27987305 203.35054199 -69.27987305 203.35054199 -70.70117188 204.09472656 C-72.1794043 204.88314941 -72.1794043 204.88314941 -73.6875 205.6875 C-74.71552734 206.23245117 -75.74355469 206.77740234 -76.80273438 207.33886719 C-78.89424315 208.45083321 -80.98394059 209.56621316 -83.07177734 210.68505859 C-85.60922027 212.04115407 -88.15575089 213.37725617 -90.70703125 214.70703125 C-122.09691107 230.73958825 -122.09691107 230.73958825 -143 257.25 C-143.77246582 261.15776827 -143.90113484 264.46300379 -142.078125 268.078125 C-139.25035672 271.86072413 -136.42753267 273.06258561 -132 274.25 C-120.8729412 275.40232853 -110.11119989 273.12586534 -99.25 271 C-97.63562327 270.69551711 -96.02103991 270.39212773 -94.40625 270.08984375 C-85.66447323 268.43733375 -76.97134463 266.61145732 -68.2935791 264.65164185 C-63.09521009 263.48047208 -57.88420245 262.42016445 -52.64868164 261.42651367 C-34.36948325 257.94864715 -16.74376664 252.83588675 1.00268555 247.29736328 C9.04283598 244.80550937 17.12257232 242.50246025 25.25 240.3125 C26.88340332 239.87079468 26.88340332 239.87079468 28.54980469 239.42016602 C33.34584569 238.14387359 38.07350701 236.92102232 43 236.25 C39.67382018 234.03254679 36.29921697 232.87141882 32.5625 231.5625 C26.04449393 229.21938729 20.39556252 226.41292761 14.55078125 222.66796875 C9.55816332 219.89259308 5.98946087 220.21827114 0.53125 221.5859375 C-0.74903076 221.90393311 -2.02931152 222.22192871 -3.34838867 222.54956055 C-4.73254613 222.90693053 -6.11641064 223.26543685 -7.5 223.625 C-8.20009186 223.80406891 -8.90018372 223.98313782 -9.62149048 224.16763306 C-20.20463315 226.87777232 -30.72511343 229.7937026 -41.1875 232.9375 C-42.40308594 233.29312012 -43.61867188 233.64874023 -44.87109375 234.01513672 C-52.94758807 236.50599094 -52.94758807 236.50599094 -59 242.25 C-59.52722656 242.93320312 -60.05445313 243.61640625 -60.59765625 244.3203125 C-61.32275391 245.33738281 -61.32275391 245.33738281 -62.0625 246.375 C-65.09984253 250.33819913 -68.42402094 253.78649612 -72.0625 257.1875 C-72.55693604 257.66010254 -73.05137207 258.13270508 -73.56079102 258.61962891 C-76.81810122 261.59160759 -79.6565154 263.38130308 -84 264.25 C-87.25 262.375 -87.25 262.375 -90 260.25 C-90.66 260.25 -91.32 260.25 -92 260.25 C-93.20420305 243.65875795 -85.98209084 231.89759843 -76 219.25 C-70.90502645 213.77904196 -67.42516074 210.66238308 -59.90234375 210.12109375 C-51.2158262 210.50690139 -42.89720787 214.53287241 -35.14453125 218.19921875 C-26.48577362 221.09264211 -19.42797049 220.03417481 -10.8125 217.5625 C-2.46208634 215.33089016 5.86581873 213.3415099 14.375 211.8125 C15.29434326 211.6369458 16.21368652 211.4613916 17.16088867 211.28051758 C26.44949693 209.66897753 34.99224005 209.79898532 43 215.25 C45.4208452 217.2687026 47.59133821 219.45609675 49.75 221.75 C50.30042969 222.31847656 50.85085938 222.88695312 51.41796875 223.47265625 C53.70084569 225.83217654 55.95414128 228.19861815 58.140625 230.6484375 C59.85192023 232.40563336 59.85192023 232.40563336 62 232.5703125 C62.99 232.47363281 62.99 232.47363281 64 232.375 C67.24694412 232.19326805 69.21057398 232.39038265 72 234.25 C72 235.24 72 236.23 72 237.25 C70.79085937 237.43175781 69.58171875 237.61351562 68.3359375 237.80078125 C59.60678411 239.13325768 50.95246485 240.57140956 42.3359375 242.5234375 C40.16415574 242.99644852 37.9810819 243.42105924 35.7890625 243.7890625 C22.1483392 246.13014774 9.09751122 250.87776476 -4 255.25 C-1.60580346 257.64419654 -0.33565228 257.77933456 2.9453125 258.43359375 C3.94046875 258.63919922 4.935625 258.84480469 5.9609375 259.05664062 C7.00507813 259.26482422 8.04921875 259.47300781 9.125 259.6875 C20.62783931 261.98952024 20.62783931 261.98952024 25.109375 263.79296875 C29.66891449 265.61550148 34.2893566 266.3657118 39.125 267.125 C40.62788574 267.36718262 40.62788574 267.36718262 42.16113281 267.61425781 C51.49759929 269.0814563 60.85809039 270.39060613 70.22357178 271.65777588 C71.89009624 271.88351943 73.55632501 272.11145818 75.222229 272.34173584 C84.54443451 273.6231024 93.56790297 274.53854072 103 274.25 C103.74781738 274.26272949 104.49563477 274.27545898 105.26611328 274.28857422 C111.2999197 274.3662355 114.73047179 270.43806551 118.8984375 266.4765625 C121.79467187 263.40806141 123 262.05781809 123 257.75 C121.13130579 246.04381213 112.32583493 236.321917 103.1550293 229.47094727 C96.35780878 224.56997507 89.22698179 220.37002938 81.89648438 216.3125 C78.38048912 214.34267362 74.91011399 212.29503978 71.4375 210.25 C70.35964233 209.61626465 70.35964233 209.61626465 69.26000977 208.96972656 C64.84722537 206.36611853 60.47643931 203.70480925 56.125 201 C52.09922288 198.51482767 48.05612906 196.07863044 43.9375 193.75 C43.08027344 193.2653125 42.22304687 192.780625 41.33984375 192.28125 C38.81612509 190.98113221 38.81612509 190.98113221 35 191.25 Z M18 219.25 C18.89307861 219.63333496 19.78615723 220.01666992 20.70629883 220.41162109 C24.02302612 221.83618849 27.33805498 223.2646712 30.65258789 224.69433594 C32.08669837 225.31226621 33.52126573 225.92913726 34.95629883 226.54492188 C37.02025781 227.43080251 39.08253756 228.32049369 41.14453125 229.2109375 C41.78526077 229.48497406 42.4259903 229.75901062 43.08613586 230.04135132 C45.92707016 231.27217267 48.41319568 232.52546379 51 234.25 C51.99 234.25 52.98 234.25 54 234.25 C51.72811996 228.64519704 46.69609475 225.76337459 42 222.25 C41.34644531 221.71246094 40.69289062 221.17492187 40.01953125 220.62109375 C33.86154753 216.01245348 24.51868348 214.90421101 18 219.25 Z M-70 223.25 C-71.49805472 225.58256102 -72.77107242 227.78441573 -74 230.25 C-74.37560059 231.00200684 -74.75120117 231.75401367 -75.13818359 232.52880859 C-76.34341784 234.98839944 -77.51911321 237.46021202 -78.6875 239.9375 C-79.29174805 241.19916992 -79.29174805 241.19916992 -79.90820312 242.48632812 C-80.29298828 243.29908203 -80.67777344 244.11183594 -81.07421875 244.94921875 C-81.42057373 245.67971436 -81.76692871 246.41020996 -82.1237793 247.1628418 C-82.9701705 249.17894612 -83.53234779 251.11744576 -84 253.25 C-74.0584601 249.57557938 -67.10616928 241.54281581 -59.84838867 234.11279297 C-55.7366746 229.9144365 -51.51725427 226.01046751 -47 222.25 C-50.39156182 218.85843818 -53.77876348 219.03741819 -58.375 218.9375 C-59.49648437 218.90011719 -60.61796875 218.86273438 -61.7734375 218.82421875 C-65.79081449 219.35435688 -67.19598764 220.34751898 -70 223.25 Z " fill="#010000" transform="translate(210,16.75)"/>
<path d="M0 0 C-0.33 0.99 -0.66 1.98 -1 3 C-1.83660156 2.92201172 -2.67320312 2.84402344 -3.53515625 2.76367188 C-12.44028755 2.01911217 -21.07142602 2.08559831 -30 2.5 C-42.28828 3.0088677 -54.44202269 2.93791588 -66.7265625 2.31835938 C-74.9053983 1.93612775 -82.84619349 2.30434649 -91 3 C-91.66 3 -92.32 3 -93 3 C-94.16825317 3.1071936 -94.16825317 3.1071936 -95.36010742 3.21655273 C-105.35359984 4.13012949 -115.28597565 4.11390813 -125.3125 4.0625 C-127.03580598 4.05747105 -128.75911339 4.05291063 -130.48242188 4.04882812 C-134.65498409 4.037942 -138.82747568 4.02075565 -143 4 C-143.33 3.01 -143.66 2.02 -144 1 C-98.52696672 -4.35955587 -45.14274685 -9.4123541 0 0 Z " fill="#ED506F" transform="translate(277,149)"/>
<path d="M0 0 C0.814189 -0.00335861 1.62837799 -0.00671722 2.46723938 -0.01017761 C5.12620618 -0.01958478 7.78510946 -0.02162475 10.4440918 -0.02270508 C12.30494716 -0.0259221 14.16580227 -0.0292865 16.0266571 -0.03279114 C19.91068102 -0.03875478 23.79468277 -0.04063362 27.67871094 -0.04003906 C32.65649039 -0.03993698 37.6341287 -0.05364913 42.61187458 -0.07081127 C46.44740963 -0.08191717 50.28291022 -0.08395879 54.1184597 -0.08342934 C55.95448485 -0.08460927 57.7905109 -0.08903179 59.62652016 -0.0967617 C62.1873135 -0.10654377 64.74779555 -0.1036919 67.30859375 -0.09765625 C68.06553528 -0.10327576 68.82247681 -0.10889526 69.60235596 -0.11468506 C73.33515431 -0.09229467 76.16241624 0.0631428 79.33081055 2.14526367 C79.33081055 2.80526367 79.33081055 3.46526367 79.33081055 4.14526367 C72.83557398 5.32950061 66.45347648 5.25537563 59.8659668 5.20776367 C57.36222357 5.1993042 54.85848007 5.19092507 52.35473633 5.18261719 C50.3718489 5.17318655 48.38896147 5.16375493 46.40607452 5.1542244 C27.64489384 5.07070056 8.90163794 5.03953628 -9.84472656 5.87768555 C-11.53287476 5.95019531 -11.53287476 5.95019531 -13.25512695 6.02416992 C-14.19404785 6.07130127 -15.13296875 6.11843262 -16.1003418 6.16699219 C-18.7481612 6.14459569 -21.09640378 5.74937723 -23.66918945 5.14526367 C-23.66918945 4.48526367 -23.66918945 3.82526367 -23.66918945 3.14526367 C-16.00595475 0.19786571 -8.12152234 -0.00492831 0 0 Z " fill="#E54D6B" transform="translate(176.669189453125,128.854736328125)"/>
<path d="M0 0 C0 1.65 0 3.3 0 5 C-3.6073628 6.20245427 -6.81696135 6.01944395 -10.5625 5.9375 C-18.41810193 5.84719637 -26.17215863 6.29638748 -34 6.9375 C-35.11568359 7.02878174 -36.23136719 7.12006348 -37.38085938 7.21411133 C-39.57408772 7.39447128 -41.76728527 7.57520624 -43.96044922 7.75634766 C-56.65155999 8.77367525 -69.27074154 9.14501687 -82 9 C-81.67 7.35 -81.34 5.7 -81 4 C-68.45028238 2.33052806 -55.95714655 1.4314386 -43.3125 0.875 C-41.93774506 0.81146332 -41.93774506 0.81146332 -40.53521729 0.74664307 C-27.01608725 0.12316441 -13.53497877 -0.28528058 0 0 Z " fill="#E44C6B" transform="translate(241,199)"/>
<path d="M0 0 C0 1.65 0 3.3 0 5 C-6.28034651 5.73819624 -11.72477956 5.92966229 -18 5 C-20.2764461 5.15910645 -22.51581623 5.43961606 -24.77734375 5.7421875 C-27.87298046 6.1012596 -30.88679588 6.06623839 -34 6 C-34 5.34 -34 4.68 -34 4 C-34.66 4 -35.32 4 -36 4 C-36 4.66 -36 5.32 -36 6 C-40.71379003 6.28751481 -45.427737 6.57225047 -50.1418457 6.85449219 C-51.74312798 6.95074678 -53.34436603 7.04774021 -54.94555664 7.14550781 C-57.25655871 7.28648397 -59.56771054 7.42473927 -61.87890625 7.5625 C-62.58648575 7.60624756 -63.29406525 7.64999512 -64.02308655 7.69506836 C-68.36002031 7.95038042 -72.65838639 8.03967208 -77 8 C-77 6.35 -77 4.7 -77 3 C-70.46957356 1.37070497 -64.34283623 0.59350796 -57.625 0.375 C-56.60220947 0.33705322 -55.57941895 0.29910645 -54.52563477 0.26000977 C-36.36211683 -0.31177347 -18.16980023 -0.08121 0 0 Z " fill="#E74D6C" transform="translate(239,182)"/>
<path d="M0 0 C0.5625 1.9375 0.5625 1.9375 1 4 C-0.78180175 5.78180175 -3.42221182 5.21464492 -5.8359375 5.28125 C-7.04636719 5.31863281 -8.25679688 5.35601562 -9.50390625 5.39453125 C-11.42009766 5.44673828 -11.42009766 5.44673828 -13.375 5.5 C-20.95093359 5.71285141 -28.47370671 5.977636 -36.01660156 6.72802734 C-42.56111037 7.32463805 -49.12832865 7.66468585 -55.6875 8.0625 C-57.17904548 8.15415016 -58.67058201 8.24594604 -60.16210938 8.33789062 C-63.77463819 8.56027065 -67.38728338 8.78068955 -71 9 C-71.66 7.68 -72.32 6.36 -73 5 C-69.19348204 1.19348204 -57.66051594 2.65899518 -52.6875 2.5 C-45.92773843 2.28155169 -39.23690738 1.9705086 -32.51245117 1.24072266 C-27.78962795 0.78822011 -23.05188623 0.6273244 -18.3125 0.4375 C-17.31927734 0.39431641 -16.32605469 0.35113281 -15.30273438 0.30664062 C-10.19690837 0.09290837 -5.11018151 -0.05002975 0 0 Z " fill="#E84E6D" transform="translate(237,162)"/>
<path d="M0 0 C-0.66 1.65 -1.32 3.3 -2 5 C-12.78698892 6.07906385 -23.48410555 6.11801948 -34.3125 6.0625 C-36.03580598 6.05747105 -37.75911339 6.05291063 -39.48242188 6.04882812 C-43.65498409 6.037942 -47.82747568 6.02075565 -52 6 C-52.33 5.01 -52.66 4.02 -53 3 C-35.24912838 0.85712937 -17.89703951 -0.48885316 0 0 Z " fill="#E04B69" transform="translate(186,147)"/>
<path d="M0 0 C0 0.66 0 1.32 0 2 C0.66 2.33 1.32 2.66 2 3 C0.07253693 4.92746307 -3.45915357 4.38862482 -6.09765625 4.53515625 C-6.80651474 4.57813339 -7.51537323 4.62111053 -8.24571228 4.66539001 C-10.51773882 4.8021291 -12.79008565 4.93238073 -15.0625 5.0625 C-16.59963475 5.15387098 -18.13674458 5.24566234 -19.67382812 5.33789062 C-23.44894641 5.56347915 -27.22436442 5.7832488 -31 6 C-31.66 4.68 -32.32 3.36 -33 2 C-29.80930493 -1.19069507 -20.36443807 -0.37602199 -16 -0.625 C-14.84757812 -0.70234375 -14.84757812 -0.70234375 -13.671875 -0.78125 C-8.94140446 -1.05478061 -4.66678935 -0.83158215 0 0 Z " fill="#EA4E6E" transform="translate(197,165)"/>
<path d="M0 0 C2.875 -0.125 2.875 -0.125 6 0 C6.66 0.66 7.32 1.32 8 2 C8.33 1.34 8.66 0.68 9 0 C9.99 0 10.98 0 12 0 C12.125 3.375 12.125 3.375 12 7 C10 9 10 9 7 10 C6.67 11.65 6.34 13.3 6 15 C4.68 15.33 3.36 15.66 2 16 C0.40837921 10.42932723 -0.20674944 5.78898419 0 0 Z " fill="#000000" transform="translate(200,83)"/>
<path d="M0 0 C9.24 0 18.48 0 28 0 C28 0.99 28 1.98 28 3 C19.30019136 4.01286753 10.74507107 4.10621544 2 4 C1.34 2.68 0.68 1.36 0 0 Z " fill="#E64D6D" transform="translate(245,162)"/>
<path d="M0 0 C-0.33 1.32 -0.66 2.64 -1 4 C-7.6 4 -14.2 4 -21 4 C-20.67 3.01 -20.34 2.02 -20 1 C-13.29980211 0.29867087 -6.73742646 -0.11044961 0 0 Z " fill="#DE4A68" transform="translate(157,167)"/>
<path d="M0 0 C0.76183594 -0.01417969 1.52367187 -0.02835937 2.30859375 -0.04296875 C4.79597315 0.21137334 6.41058106 0.94732804 8.5625 2.1875 C8.5625 3.1775 8.5625 4.1675 8.5625 5.1875 C6.8334226 5.21475341 5.10421824 5.23400987 3.375 5.25 C1.93060547 5.26740234 1.93060547 5.26740234 0.45703125 5.28515625 C-2.29326513 5.19236622 -4.76229591 4.80861685 -7.4375 4.1875 C-7.4375 3.1975 -7.4375 2.2075 -7.4375 1.1875 C-4.66697819 0.26399273 -2.87061242 0.02420415 0 0 Z " fill="#D74865" transform="translate(232.4375,117.8125)"/>
<path d="M0 0 C0.66 0 1.32 0 2 0 C2.33 1.32 2.66 2.64 3 4 C3.66 4 4.32 4 5 4 C5.66 2.68 6.32 1.36 7 0 C7.66 0 8.32 0 9 0 C8.25 6.75 8.25 6.75 6 9 C3.4375 8.75 3.4375 8.75 1 8 C-0.35439668 5.29120665 -0.06501451 2.99066732 0 0 Z " fill="#000000" transform="translate(188,84)"/>
<path d="M0 0 C9.24 0 18.48 0 28 0 C28 0.99 28 1.98 28 3 C24.37 3 20.74 3 17 3 C17 2.67 17 2.34 17 2 C11.39 2 5.78 2 0 2 C0 1.34 0 0.68 0 0 Z " fill="#DC4967" transform="translate(245,162)"/>
<path d="M0 0 C2.31 0.33 4.62 0.66 7 1 C7 1.66 7 2.32 7 3 C7.66 3.33 8.32 3.66 9 4 C8 5 8 5 4.83984375 5.09765625 C2.90818359 5.08025391 2.90818359 5.08025391 0.9375 5.0625 C-0.35285156 5.05347656 -1.64320313 5.04445312 -2.97265625 5.03515625 C-3.97167969 5.02355469 -4.97070312 5.01195312 -6 5 C-6 4.67 -6 4.34 -6 4 C-4.02 4 -2.04 4 0 4 C0 2.68 0 1.36 0 0 Z " fill="#C6425D" transform="translate(190,164)"/>
<path d="M0 0 C2.97 0 5.94 0 9 0 C9 0.99 9 1.98 9 3 C6.36 3 3.72 3 1 3 C0.67 2.01 0.34 1.02 0 0 Z " fill="#D64764" transform="translate(133,150)"/>
<path d="M0 0 C2.31 0.33 4.62 0.66 7 1 C6.67 1.99 6.34 2.98 6 4 C3.125 4.125 3.125 4.125 0 4 C-0.66 3.34 -1.32 2.68 -2 2 C-1.34 2 -0.68 2 0 2 C0 1.34 0 0.68 0 0 Z " fill="#CD4460" transform="translate(270,148)"/>
<path d="M0 0 C2.31 0 4.62 0 7 0 C6.67 0.99 6.34 1.98 6 3 C3.69 3 1.38 3 -1 3 C-0.67 2.01 -0.34 1.02 0 0 Z " fill="#FC5578" transform="translate(197,165)"/>
<path d="M0 0 C0.99 0.33 1.98 0.66 3 1 C3 1.99 3 2.98 3 4 C1.35 4 -0.3 4 -2 4 C-2 3.01 -2 2.02 -2 1 C-1.34 0.67 -0.68 0.34 0 0 Z " fill="#000000" transform="translate(200,99)"/>
<path d="M0 0 C0.99 0.33 1.98 0.66 3 1 C2.67 1.99 2.34 2.98 2 4 C1.34 3.67 0.68 3.34 0 3 C0 2.01 0 1.02 0 0 Z " fill="#000000" transform="translate(199,43)"/>
</svg>
